<svg xmlns="http://www.w3.org/2000/svg" version="1.1" xmlns:xlink="http://www.w3.org/1999/xlink" xmlns:svgjs="http://svgjs.dev/svgjs" width="2000" height="1500" viewBox="0 0 2000 1500"><rect width="2000" height="1500" fill="#000000"></rect><g transform="matrix(0.75,0,0,0.75,249.090909090909,282.7536437246963)"><svg viewBox="0 0 396 247" data-background-color="#000000" preserveAspectRatio="xMidYMid meet" height="1247" width="2000" xmlns="http://www.w3.org/2000/svg" xmlns:xlink="http://www.w3.org/1999/xlink"><g id="tight-bounds" transform="matrix(1,0,0,1,0.2400000000000091,-0.09999999999999432)"><svg viewBox="0 0 395.52 247.2" height="247.2" width="395.52"><rect width="395.52" height="247.2" fill="#ffffff" mask="url(#ad832500-62c1-429e-b456-5cdb6c382a8d)" data-fill-palette-color="tertiary"></rect><g><svg></svg></g><g><svg viewBox="0 0 395.52 247.2" height="247.2" width="395.52"><g transform="matrix(1,0,0,1,89.16197599402491,47.215199999999996)"><svg viewBox="0 0 217.19604801195015 152.7696" height="152.7696" width="217.19604801195015"><g><svg viewBox="0 0 244.43135999999998 171.92615352099526" height="152.7696" width="217.19604801195015"><g transform="matrix(1,0,0,1,0,123.12055758645255)"><svg viewBox="0 0 244.43135999999998 48.805595934542715" height="48.805595934542715" width="244.43135999999998"><g id="textblocktransform"><svg viewBox="0 0 244.43135999999998 48.805595934542715" height="48.805595934542715" width="244.43135999999998" id="textblock"><g><svg viewBox="0 0 244.43135999999998 48.805595934542715" height="48.805595934542715" width="244.43135999999998"><g transform="matrix(1,0,0,1,0,0)"><svg width="244.43135999999998" viewBox="1.4853900000000009 -35.5937 236.94486000000003 47.3107583803866" height="48.805595934542715" data-palette-color="url(#06918d91-613b-4972-b238-36e9ccb473b6)"></svg></g></svg></g></svg></g></svg></g><g transform="matrix(1,0,0,1,66.68504138079047,0)"><svg viewBox="0 0 111.06127723841905 108.97508682648433" height="108.97508682648433" width="111.06127723841905"><g><svg xmlns="http://www.w3.org/2000/svg" xmlns:xlink="http://www.w3.org/1999/xlink" version="1.1" x="0" y="0" viewBox="0 0.00024972056642233453 100 98.12158615152946" enable-background="new 0 0 100 100" xml:space="preserve" height="108.97508682648433" width="111.06127723841905" class="icon-icon-0" data-fill-palette-color="accent" id="icon-0"></svg></g></svg></g><g></g></svg></g></svg></g><g><path d="M124.166 43.741A108.598 108.598 0 0 1 271.354 43.741L270.027 43.741A107.271 107.271 0 0 0 125.493 43.741L124.166 43.741M124.166 203.459A108.598 108.598 0 0 0 271.354 203.459L270.027 203.459A107.271 107.271 0 0 1 125.493 203.459L124.166 203.459" fill="#ffffff" stroke="transparent" data-fill-palette-color="tertiary"></path></g></svg></g><defs></defs><mask id="affa8f1e-7652-4f4f-8952-05eab9f9b66a"><g id="SvgjsG1378"><svg viewBox="0 0 395.52 247.2" height="247.2" width="395.52"><g><svg></svg></g><g><svg viewBox="0 0 395.52 247.2" height="247.2" width="395.52"><g transform="matrix(1,0,0,1,89.16197599402491,47.215199999999996)"><svg viewBox="0 0 217.19604801195015 152.7696" height="152.7696" width="217.19604801195015"><g><svg viewBox="0 0 244.43135999999998 171.92615352099526" height="152.7696" width="217.19604801195015"><g transform="matrix(1,0,0,1,0,123.12055758645255)"><svg viewBox="0 0 244.43135999999998 48.805595934542715" height="48.805595934542715" width="244.43135999999998"><g id="SvgjsG1377"><svg viewBox="0 0 244.43135999999998 48.805595934542715" height="48.805595934542715" width="244.43135999999998" id="SvgjsSvg1376"><g><svg viewBox="0 0 244.43135999999998 48.805595934542715" height="48.805595934542715" width="244.43135999999998"><g transform="matrix(1,0,0,1,0,0)"><svg width="244.43135999999998" viewBox="1.4853900000000009 -35.5937 236.94486000000003 47.3107583803866" height="48.805595934542715" data-palette-color="url(#06918d91-613b-4972-b238-36e9ccb473b6)"><path d="M5.374 10.787v0c-0.624 0.106-1.055 0.161-1.29 0.168v0c-0.092-1.945 0.101-6.958 0.581-15.037 0.478-8.086 0.543-13.165 0.192-15.236v0c-0.067-0.394-0.388-0.874-0.963-1.439-0.568-0.56-1.118-1.014-1.651-1.364v0l-0.758-0.582 0.015-0.814c4.365-1.617 9.062-2.851 14.09-3.701v0c6.054-1.024 9.484 0.847 10.29 5.613v0c0.395 2.334 0.17 4.562-0.675 6.686-0.838 2.123-2.401 3.935-4.689 5.438v0c2.886 5.834 5.14 9.547 6.762 11.138v0c0.719 0.656 1.243 0.956 1.572 0.901v0c0.592-0.1 1.462-0.551 2.611-1.354v0l0.542-0.396 1.442 1.632c-1.027 1.323-2.278 2.481-3.753 3.475-1.468 0.992-2.903 1.606-4.303 1.843-1.4 0.237-2.652-0.17-3.756-1.221-1.109-1.043-2.23-2.669-3.361-4.878-1.139-2.215-2.394-5.082-3.767-8.602v0c-1.041 0.244-1.84 0.413-2.399 0.507v0c-0.458 7.488-0.555 12.511-0.291 15.069v0c-1.297 0.929-3.444 1.647-6.441 2.154zM12.279-9.914l1.183-0.2c1.972-0.333 3.378-1.477 4.217-3.431 0.833-1.953 1.043-4.145 0.632-6.577v0c-0.217-1.282-0.622-2.278-1.215-2.99-0.594-0.711-1.35-0.989-2.271-0.833v0c-0.394 0.067-0.852 0.201-1.372 0.405-0.526 0.211-0.786 0.332-0.78 0.365v0c0.047 3.474-0.085 7.895-0.394 13.261zM46.368-16.605v0c0.058-0.074 0.187-0.527 0.387-1.358v0c1.555-0.191 3.7 0.016 6.434 0.62v0c-0.496 2.848-0.809 5.802-0.937 8.861-0.128 3.058-0.114 5.223 0.042 6.493 0.157 1.277 0.368 1.899 0.633 1.867v0c0.199-0.024 0.891-0.429 2.077-1.212v0l0.559-0.371 1.107 1.627c-0.265 0.301-0.615 0.68-1.049 1.136-0.428 0.456-1.265 1.102-2.512 1.941-1.24 0.844-2.389 1.331-3.448 1.461v0c-2.051 0.252-3.356-0.528-3.915-2.34v0c-1.89 2.113-3.688 3.274-5.395 3.484-1.707 0.21-3.228-0.275-4.561-1.455-1.34-1.179-2.186-3.194-2.537-6.046v0c-0.545-4.433-0.065-8.045 1.44-10.836 1.505-2.784 3.551-4.335 6.138-4.653v0c1.853-0.228 3.698 0.033 5.537 0.781zM42.791 1.022v0c0.794-0.098 1.649-0.522 2.564-1.272v0c-0.342-4.7-0.132-9.414 0.63-14.142v0c-1.045-0.308-1.915-0.42-2.61-0.334v0c-1.191 0.146-2.067 1.436-2.628 3.869-0.553 2.439-0.657 5.065-0.312 7.877 0.346 2.819 1.131 4.153 2.356 4.002zM79.789-3.696l1.091 1.666c-2.63 2.659-5.014 4.077-7.154 4.254-2.146 0.177-3.473-0.783-3.981-2.882v0c-0.914 1.079-1.963 1.952-3.145 2.618-1.182 0.666-2.242 1.038-3.179 1.116v0c-1.595 0.132-3.014-0.453-4.259-1.755-1.245-1.302-1.988-3.418-2.23-6.348v0c-0.363-4.385 0.282-7.91 1.935-10.575 1.653-2.659 3.652-4.085 5.998-4.279 2.345-0.194 4.359 0.175 6.041 1.106v0c0.584-5.473 0.749-9.755 0.493-12.844v0l-0.422-2.073c2.42-1.07 4.829-1.704 7.228-1.902v0c0.312 0.543 0.499 1.18 0.559 1.911v0c0.201 2.425-0.123 7.412-0.97 14.961-0.854 7.549-1.171 12.656-0.951 15.32v0c0.066 0.797 0.282 1.181 0.647 1.151v0c0.199-0.016 0.808-0.385 1.826-1.105v0zM67.529-17.141v0c-1.163 0.096-2.075 1.325-2.735 3.688-0.654 2.362-0.889 4.666-0.703 6.911 0.186 2.246 0.461 3.671 0.825 4.277 0.371 0.605 0.872 0.881 1.504 0.829v0c1.096-0.091 2.139-0.628 3.127-1.614v0c-0.01-1.337 0.372-5.82 1.146-13.45v0c-1.179-0.505-2.233-0.718-3.164-0.641zM91.539-18.588c0.073 1.398-0.252 3.828-0.973 7.29-0.721 3.462-1.055 5.716-1 6.761 0.055 1.052 0.232 1.57 0.531 1.555v0c0.2-0.01 0.949-0.366 2.248-1.068v0l0.583-0.331 0.94 1.704c-0.286 0.282-0.668 0.636-1.147 1.06-0.479 0.425-1.383 1.013-2.712 1.764-1.336 0.757-2.586 1.166-3.751 1.226-1.165 0.061-2.099-0.251-2.803-0.936-0.703-0.678-1.086-1.626-1.149-2.844-0.063-1.212 0.241-3.397 0.911-6.556 0.67-3.159 0.981-5.205 0.933-6.137v0c-0.073-1.398-0.574-2.691-1.503-3.877v0l-0.481-0.576 0.017-0.652c1.738-0.591 4.591-0.99 8.559-1.195v0c0.459 0.477 0.724 1.414 0.797 2.812zM85.405-26.611c-0.7-0.618-1.078-1.476-1.136-2.574-0.057-1.099 0.352-2.088 1.228-2.968 0.876-0.88 1.912-1.351 3.111-1.413 1.198-0.062 2.148 0.222 2.848 0.853 0.7 0.631 1.079 1.486 1.135 2.565 0.056 1.085-0.37 2.069-1.279 2.95-0.902 0.881-1.936 1.352-3.101 1.413-1.172 0.061-2.107-0.214-2.806-0.826zM102.434 0.82v0c-2.306 0.046-4.125-0.728-5.457-2.322-1.332-1.587-2.027-3.834-2.084-6.74v0c-0.073-3.699 0.856-6.902 2.79-9.607 1.927-2.705 4.643-4.093 8.149-4.163v0l1.801 0.064c0.561-0.311 1.191-0.474 1.891-0.487v0c2.633-0.052 3.999 2.404 4.097 7.37v0c1.365-0.094 2.748-0.305 4.148-0.633v0l0.796-0.215 0.339 1.943c-1.091 0.488-2.569 0.935-4.434 1.339v0l-0.996 0.219c-0.564 3.519-1.786 6.587-3.668 9.205-1.882 2.625-4.339 3.967-7.372 4.027zM105.049-3.533v0c1.4-0.028 2.638-0.953 3.715-2.774 1.084-1.829 1.823-3.747 2.216-5.755v0c-3.566 0.071-5.375-1.227-5.428-3.893v0c-0.021-1.066 0.176-2.071 0.59-3.012v0l0.24-0.505c-0.135-0.064-0.302-0.094-0.502-0.09-0.2 0.004-0.349 0.04-0.448 0.109v0c-0.823 0.55-1.581 1.815-2.275 3.796-0.694 1.981-1.016 4.238-0.965 6.77v0c0.072 3.606 1.024 5.391 2.857 5.354zM138.938 0.996c-1.3-0.025-2.361-0.471-3.185-1.34-0.817-0.862-1.212-2.02-1.185-3.473 0.027-1.446 0.842-5.542 2.443-12.286v0c-0.869-0.216-2.271-0.343-4.203-0.38-1.933-0.037-3.786 0.095-5.559 0.395v0c-1.845 7.64-2.842 12.758-2.991 15.356v0c-1.212 0.644-3.755 0.929-7.627 0.856v0l-0.5-0.01c0.128-1.465 1.104-5.833 2.928-13.107 1.818-7.274 2.965-12.739 3.441-16.397v0c0.01-0.533-0.148-1.18-0.473-1.94-0.319-0.753-0.641-1.366-0.965-1.838v0l-0.537-0.711 0.164-0.747c1.984-0.529 5.109-0.753 9.375-0.672v0c0.387 0.674 0.567 1.761 0.538 3.26-0.028 1.5-0.857 5.621-2.485 12.366v0l9.659 0.183c1.279-5.917 1.959-10.141 2.04-12.674v0c0.011-0.567-0.014-1.034-0.073-1.402v0c2.686-0.983 5.378-1.448 8.077-1.397v0c0.096 0.202 0.137 0.703 0.122 1.503v0c-0.035 1.833-0.931 6.537-2.688 14.111-1.764 7.568-2.665 12.388-2.704 14.462v0c-0.017 0.9 0.124 1.353 0.424 1.358 0.3 0.006 1.325-0.408 3.074-1.242v0l0.865 1.867c-3.017 2.643-5.676 3.943-7.975 3.899zM149.337-7.932v0c0.268-4.158 1.737-7.364 4.407-9.617 2.67-2.246 5.601-3.267 8.795-3.061v0c1.963 0.126 3.545 0.713 4.747 1.758 1.202 1.046 1.751 2.374 1.647 3.984-0.104 1.617-0.597 2.948-1.48 3.994-0.889 1.045-1.935 1.829-3.137 2.353v0c-2.437 1.012-4.646 1.605-6.628 1.778v0l-1.207 0.072c0.031 3.148 1.211 4.798 3.539 4.948v0c0.798 0.051 1.659-0.094 2.583-0.435 0.924-0.341 1.648-0.696 2.173-1.063v0l0.787-0.55 1.095 1.674c-0.29 0.349-0.853 0.797-1.69 1.344-0.837 0.547-1.617 0.998-2.342 1.352v0c-1.998 0.94-4.144 1.336-6.439 1.189-2.302-0.148-4.066-1.08-5.292-2.796-1.226-1.716-1.745-4.024-1.558-6.924zM156.588-9.119c1.716-0.19 3.109-0.819 4.18-1.885 1.071-1.067 1.664-2.498 1.779-4.295 0.116-1.796-0.359-2.729-1.423-2.797v0c-1.264-0.081-2.308 0.927-3.131 3.025-0.817 2.105-1.285 4.089-1.405 5.952zM185.396-17.083v0c0.073-0.06 0.299-0.473 0.676-1.239v0c1.559 0.156 3.605 0.83 6.139 2.022v0c-1.111 2.669-2.066 5.481-2.864 8.436-0.798 2.955-1.261 5.07-1.388 6.344-0.128 1.28-0.06 1.934 0.205 1.96v0c0.199 0.02 0.964-0.222 2.294-0.725v0l0.627-0.239 0.721 1.831c-0.325 0.235-0.75 0.528-1.274 0.877-0.517 0.35-1.477 0.797-2.877 1.34-1.395 0.55-2.623 0.773-3.685 0.667v0c-2.056-0.206-3.157-1.254-3.303-3.145v0c-2.309 1.645-4.319 2.382-6.03 2.211-1.711-0.171-3.088-0.979-4.13-2.424-1.048-1.445-1.429-3.597-1.142-6.455v0c0.445-4.444 1.708-7.862 3.79-10.254 2.081-2.385 4.419-3.447 7.012-3.188v0c1.857 0.186 3.6 0.846 5.229 1.981zM178.025-0.675v0c0.796 0.08 1.723-0.146 2.781-0.677v0c0.701-4.66 1.944-9.212 3.729-13.656v0c-0.952-0.531-1.776-0.831-2.473-0.901v0c-1.194-0.119-2.332 0.946-3.415 3.196-1.077 2.257-1.756 4.796-2.039 7.615-0.283 2.826 0.189 4.3 1.417 4.423zM215.155 2.868l0.697 1.865c-3.151 2.015-5.789 2.873-7.915 2.575-2.132-0.299-3.215-1.529-3.249-3.688v0c-1.129 0.851-2.344 1.472-3.644 1.861-1.3 0.39-2.416 0.519-3.346 0.389v0c-1.584-0.222-2.841-1.106-3.769-2.65-0.928-1.544-1.187-3.772-0.778-6.683v0c0.612-4.357 2.017-7.654 4.216-9.89 2.198-2.229 4.462-3.181 6.793-2.853 2.33 0.327 4.214 1.13 5.65 2.409v0c1.775-5.21 2.878-9.351 3.308-12.421v0l0.045-2.114c2.596-0.511 5.086-0.599 7.469-0.264v0c0.185 0.598 0.227 1.26 0.125 1.986v0c-0.338 2.41-1.752 7.203-4.24 14.381-2.495 7.176-3.929 12.088-4.301 14.735v0c-0.111 0.792 0.015 1.214 0.378 1.265v0c0.198 0.028 0.873-0.197 2.024-0.676v0zM206.156-12.947v0c-1.155-0.162-2.315 0.836-3.48 2.995-1.158 2.16-1.894 4.356-2.208 6.588-0.313 2.231-0.359 3.683-0.136 4.353 0.229 0.672 0.657 1.052 1.284 1.139v0c1.089 0.153 2.225-0.142 3.406-0.885v0c0.284-1.306 1.644-5.596 4.079-12.868v0c-1.039-0.752-2.021-1.192-2.945-1.322zM225.904-12.856v0l9.338 2.087c1.05 0.189 2.059 0.32 3.029 0.392v0l0.159 1.654-1.129 0.915c-2.155 1.814-4.583 4.012-7.283 6.595-2.7 2.583-4.172 3.988-4.416 4.214v0c2.823 1.626 5.006 2.577 6.548 2.855v0c0.492 0.089 0.854 0.052 1.086-0.11v0c0.348-0.242 0.841-0.814 1.477-1.715v0l1.415 0.61c-0.897 3.666-2.076 5.892-3.539 6.679v0c-0.712 0.38-1.527 0.487-2.445 0.322-0.919-0.165-2.286-0.997-4.103-2.496-1.818-1.492-3.321-2.514-4.509-3.067v0c-1.714 1.622-2.834 2.386-3.358 2.292-0.525-0.094-1.103-0.649-1.733-1.663-0.632-1.008-0.903-1.758-0.815-2.25 0.089-0.492 0.759-1.245 2.012-2.259 1.246-1.015 2.427-1.423 3.542-1.223v0c0.23 0.041 0.407 0.09 0.533 0.147v0c3.13-2.112 6.057-4.617 8.779-7.514v0c-2.827-0.475-4.815-0.741-5.963-0.799-1.143-0.05-2.292 0.126-3.448 0.528v0c-0.056-1.195 0.027-2.41 0.249-3.643 0.221-1.227 0.428-2.094 0.621-2.602v0c0.503-0.35 1.821-0.333 3.953 0.051z" opacity="1" transform="matrix(1,0,0,1,0,0)" fill="white" class="wordmark-text-0" id="SvgjsPath1375"></path></svg></g></svg></g></svg></g></svg></g><g transform="matrix(1,0,0,1,66.68504138079047,0)"><svg viewBox="0 0 111.06127723841905 108.97508682648433" height="108.97508682648433" width="111.06127723841905"><g><svg xmlns="http://www.w3.org/2000/svg" xmlns:xlink="http://www.w3.org/1999/xlink" version="1.1" x="0" y="0" viewBox="0 0.00024972056642233453 100 98.12158615152946" enable-background="new 0 0 100 100" xml:space="preserve" height="108.97508682648433" width="111.06127723841905" class="icon-icon-0" data-fill-palette-color="accent" id="SvgjsSvg1374"><g fill="black"><path d="M65.527 39.148c-8.535 0-15.683 5.875-17.668 13.797H10.157v1.929h37.329c-0.088 0.639-0.144 1.288-0.164 1.947H10.157v1.929h37.205c0.049 0.659 0.129 1.308 0.247 1.946H10.157v1.929h37.911c0.199 0.666 0.432 1.315 0.703 1.947H10.157v1.929h39.597c0.394 0.679 0.83 1.327 1.305 1.946H10.157v1.929h42.589c0.725 0.714 1.512 1.361 2.348 1.947H10.157v1.929h48.464c2.131 0.874 4.461 1.362 6.906 1.362s4.777-0.488 6.908-1.362h16.123v-1.929H75.961c0.836-0.586 1.625-1.233 2.35-1.947h10.248v-1.929h-8.562c0.477-0.619 0.912-1.268 1.305-1.946h7.258v-1.929h-6.273c0.27-0.632 0.502-1.281 0.703-1.947h5.57v-1.929h-5.113c0.119-0.639 0.197-1.287 0.248-1.946h4.865v-1.929h-4.826c-0.02-0.659-0.074-1.309-0.162-1.947h4.988v-1.929h-5.363C81.211 45.023 74.066 39.148 65.527 39.148zM65.527 46.016c6.277 0 11.365 5.089 11.365 11.366 0 6.277-5.088 11.365-11.365 11.365-6.275 0-11.367-5.088-11.367-11.365C54.16 51.105 59.252 46.016 65.527 46.016z" fill="black"></path><circle cx="65.527" cy="57.382" r="2.8" fill="black"></circle><rect x="10.157" y="76.198" width="78.402" height="1.929" fill="black"></rect><path d="M95.529 34.213l-0.035-0.104-0.043-0.101c-0.814-1.984-2.541-3.472-4.623-3.983l-0.227-0.057-0.236-0.029c-3.246-0.399-6.508-0.749-9.777-1.053-0.135-0.318-0.33-0.619-0.59-0.879L51.029 0.503c-0.67-0.671-1.757-0.67-2.427 0.001-0.669 0.668-0.67 1.755 0 2.425l24.04 25.325c-7.545-0.517-15.113-0.789-22.639-0.789H50c-13.446 0-27.026 0.833-40.367 2.474l-0.234 0.029L9.17 30.025c-2.082 0.511-3.809 1.999-4.623 3.983l-0.042 0.101-0.036 0.104c-2.728 7.854-4.218 16.084-4.428 24.459C0.013 59.396 0 60.057 0 60.695v0.049L0 60.767 0 60.802c0 9.034 1.504 17.944 4.47 26.483l0.036 0.103 0.042 0.103c0.813 1.982 2.541 3.471 4.623 3.982l0.229 0.057 0.234 0.027c2.65 0.328 5.312 0.612 7.979 0.874-0.098 0.325-0.17 0.662-0.191 1.015-0.143 2.437 1.714 4.524 4.149 4.668 2.434 0.144 4.525-1.715 4.668-4.148 0.016-0.272-0.001-0.538-0.034-0.8 7.927 0.571 15.883 0.868 23.792 0.868 8.123 0 16.293-0.311 24.434-0.912-0.037 0.274-0.053 0.557-0.037 0.844 0.145 2.434 2.236 4.292 4.668 4.148 2.436-0.144 4.293-2.231 4.15-4.668-0.021-0.376-0.105-0.73-0.215-1.075 2.461-0.247 4.92-0.511 7.367-0.813l0.236-0.027 0.227-0.057c2.082-0.512 3.809-2 4.623-3.982l0.043-0.103 0.035-0.103C98.496 78.746 100 69.836 100 60.802v-0.049-0.023-0.034C100 51.662 98.496 42.752 95.529 34.213zM96.014 60.802c0 8.823-1.508 17.287-4.248 25.176-0.33 0.806-1.027 1.414-1.887 1.625-13.068 1.608-26.375 2.444-39.878 2.444H50c0 0 0 0-0.001 0h-0.001c-13.503 0-26.81-0.836-39.878-2.444-0.859-0.211-1.555-0.819-1.886-1.625-2.74-7.889-4.249-16.353-4.249-25.176 0-0.017 0.001-0.034 0.001-0.051 0-0.02-0.001-0.037-0.001-0.056 0-0.644 0.016-1.272 0.041-1.895 0.2-8.138 1.665-15.959 4.208-23.281 0.331-0.805 1.027-1.415 1.886-1.625 13.069-1.608 26.375-2.443 39.878-2.443 0.001 0 0.001 0 0.001 0 0.001 0 0.001 0 0.001 0 0.001 0 0.002 0 0.004 0 9.217 0 18.34 0.399 27.359 1.156 0.299 0.077 0.604 0.103 0.91 0.077 3.887 0.339 7.758 0.736 11.605 1.21 0.859 0.211 1.557 0.82 1.887 1.625 2.74 7.889 4.248 16.354 4.248 25.176 0 0.016 0 0.033 0 0.051C96.014 60.765 96.014 60.783 96.014 60.802z" fill="black"></path></g></svg></g></svg></g><g></g></svg></g></svg></g><g><path d="M124.166 43.741A108.598 108.598 0 0 1 271.354 43.741L270.027 43.741A107.271 107.271 0 0 0 125.493 43.741L124.166 43.741M124.166 203.459A108.598 108.598 0 0 0 271.354 203.459L270.027 203.459A107.271 107.271 0 0 1 125.493 203.459L124.166 203.459" fill="black" stroke="transparent"></path></g></svg></g><defs><mask></mask></defs></svg><rect width="395.52" height="247.2" fill="black" stroke="none" visibility="hidden"></rect></g></mask><linearGradient x1="0" x2="1" y1="0.5" y2="0.5" id="06918d91-613b-4972-b238-36e9ccb473b6"><stop stop-color="#ffa62e" offset="0"></stop><stop stop-color="#f71b3d" offset="1"></stop></linearGradient><rect width="395.52" height="247.2" fill="#ffffff" mask="url(#affa8f1e-7652-4f4f-8952-05eab9f9b66a)" data-fill-palette-color="primary"></rect><mask id="e061fdff-4a21-4736-9026-dad7e019dd3d"><g id="SvgjsG1397"><svg viewBox="0 0 395.52 247.2" height="247.2" width="395.52"><g><svg></svg></g><g><svg viewBox="0 0 395.52 247.2" height="247.2" width="395.52"><g transform="matrix(1,0,0,1,89.16197599402491,47.215199999999996)"><svg viewBox="0 0 217.19604801195015 152.7696" height="152.7696" width="217.19604801195015"><g><svg viewBox="0 0 244.43135999999998 171.92615352099526" height="152.7696" width="217.19604801195015"><g transform="matrix(1,0,0,1,0,123.12055758645255)"><svg viewBox="0 0 244.43135999999998 48.805595934542715" height="48.805595934542715" width="244.43135999999998"><g id="SvgjsG1396"><svg viewBox="0 0 244.43135999999998 48.805595934542715" height="48.805595934542715" width="244.43135999999998" id="SvgjsSvg1395"><g><svg viewBox="0 0 244.43135999999998 48.805595934542715" height="48.805595934542715" width="244.43135999999998"><g transform="matrix(1,0,0,1,0,0)"><svg width="244.43135999999998" viewBox="1.4853900000000009 -35.5937 236.94486000000003 47.3107583803866" height="48.805595934542715" data-palette-color="url(#06918d91-613b-4972-b238-36e9ccb473b6)"></svg></g></svg></g></svg></g></svg></g><g transform="matrix(1,0,0,1,66.68504138079047,0)"><svg viewBox="0 0 111.06127723841905 108.97508682648433" height="108.97508682648433" width="111.06127723841905"><g><svg xmlns="http://www.w3.org/2000/svg" xmlns:xlink="http://www.w3.org/1999/xlink" version="1.1" x="0" y="0" viewBox="0 0.00024972056642233453 100 98.12158615152946" enable-background="new 0 0 100 100" xml:space="preserve" height="108.97508682648433" width="111.06127723841905" class="icon-icon-0" data-fill-palette-color="accent" id="SvgjsSvg1394"><g fill="white"><path d="M65.527 39.148c-8.535 0-15.683 5.875-17.668 13.797H10.157v1.929h37.329c-0.088 0.639-0.144 1.288-0.164 1.947H10.157v1.929h37.205c0.049 0.659 0.129 1.308 0.247 1.946H10.157v1.929h37.911c0.199 0.666 0.432 1.315 0.703 1.947H10.157v1.929h39.597c0.394 0.679 0.83 1.327 1.305 1.946H10.157v1.929h42.589c0.725 0.714 1.512 1.361 2.348 1.947H10.157v1.929h48.464c2.131 0.874 4.461 1.362 6.906 1.362s4.777-0.488 6.908-1.362h16.123v-1.929H75.961c0.836-0.586 1.625-1.233 2.35-1.947h10.248v-1.929h-8.562c0.477-0.619 0.912-1.268 1.305-1.946h7.258v-1.929h-6.273c0.27-0.632 0.502-1.281 0.703-1.947h5.57v-1.929h-5.113c0.119-0.639 0.197-1.287 0.248-1.946h4.865v-1.929h-4.826c-0.02-0.659-0.074-1.309-0.162-1.947h4.988v-1.929h-5.363C81.211 45.023 74.066 39.148 65.527 39.148zM65.527 46.016c6.277 0 11.365 5.089 11.365 11.366 0 6.277-5.088 11.365-11.365 11.365-6.275 0-11.367-5.088-11.367-11.365C54.16 51.105 59.252 46.016 65.527 46.016z" fill="white"></path><circle cx="65.527" cy="57.382" r="2.8" fill="white"></circle><rect x="10.157" y="76.198" width="78.402" height="1.929" fill="white"></rect><path d="M95.529 34.213l-0.035-0.104-0.043-0.101c-0.814-1.984-2.541-3.472-4.623-3.983l-0.227-0.057-0.236-0.029c-3.246-0.399-6.508-0.749-9.777-1.053-0.135-0.318-0.33-0.619-0.59-0.879L51.029 0.503c-0.67-0.671-1.757-0.67-2.427 0.001-0.669 0.668-0.67 1.755 0 2.425l24.04 25.325c-7.545-0.517-15.113-0.789-22.639-0.789H50c-13.446 0-27.026 0.833-40.367 2.474l-0.234 0.029L9.17 30.025c-2.082 0.511-3.809 1.999-4.623 3.983l-0.042 0.101-0.036 0.104c-2.728 7.854-4.218 16.084-4.428 24.459C0.013 59.396 0 60.057 0 60.695v0.049L0 60.767 0 60.802c0 9.034 1.504 17.944 4.47 26.483l0.036 0.103 0.042 0.103c0.813 1.982 2.541 3.471 4.623 3.982l0.229 0.057 0.234 0.027c2.65 0.328 5.312 0.612 7.979 0.874-0.098 0.325-0.17 0.662-0.191 1.015-0.143 2.437 1.714 4.524 4.149 4.668 2.434 0.144 4.525-1.715 4.668-4.148 0.016-0.272-0.001-0.538-0.034-0.8 7.927 0.571 15.883 0.868 23.792 0.868 8.123 0 16.293-0.311 24.434-0.912-0.037 0.274-0.053 0.557-0.037 0.844 0.145 2.434 2.236 4.292 4.668 4.148 2.436-0.144 4.293-2.231 4.15-4.668-0.021-0.376-0.105-0.73-0.215-1.075 2.461-0.247 4.92-0.511 7.367-0.813l0.236-0.027 0.227-0.057c2.082-0.512 3.809-2 4.623-3.982l0.043-0.103 0.035-0.103C98.496 78.746 100 69.836 100 60.802v-0.049-0.023-0.034C100 51.662 98.496 42.752 95.529 34.213zM96.014 60.802c0 8.823-1.508 17.287-4.248 25.176-0.33 0.806-1.027 1.414-1.887 1.625-13.068 1.608-26.375 2.444-39.878 2.444H50c0 0 0 0-0.001 0h-0.001c-13.503 0-26.81-0.836-39.878-2.444-0.859-0.211-1.555-0.819-1.886-1.625-2.74-7.889-4.249-16.353-4.249-25.176 0-0.017 0.001-0.034 0.001-0.051 0-0.02-0.001-0.037-0.001-0.056 0-0.644 0.016-1.272 0.041-1.895 0.2-8.138 1.665-15.959 4.208-23.281 0.331-0.805 1.027-1.415 1.886-1.625 13.069-1.608 26.375-2.443 39.878-2.443 0.001 0 0.001 0 0.001 0 0.001 0 0.001 0 0.001 0 0.001 0 0.002 0 0.004 0 9.217 0 18.34 0.399 27.359 1.156 0.299 0.077 0.604 0.103 0.91 0.077 3.887 0.339 7.758 0.736 11.605 1.21 0.859 0.211 1.557 0.82 1.887 1.625 2.74 7.889 4.248 16.354 4.248 25.176 0 0.016 0 0.033 0 0.051C96.014 60.765 96.014 60.783 96.014 60.802z" fill="white"></path></g></svg></g></svg></g><g></g></svg></g></svg></g><g><path d="M124.166 43.741A108.598 108.598 0 0 1 271.354 43.741L270.027 43.741A107.271 107.271 0 0 0 125.493 43.741L124.166 43.741M124.166 203.459A108.598 108.598 0 0 0 271.354 203.459L270.027 203.459A107.271 107.271 0 0 1 125.493 203.459L124.166 203.459" fill="black" stroke="transparent"></path></g></svg></g><defs><mask></mask></defs><mask><g id="SvgjsG1393"><svg viewBox="0 0 395.52 247.2" height="247.2" width="395.52"><g><svg></svg></g><g><svg viewBox="0 0 395.52 247.2" height="247.2" width="395.52"><g transform="matrix(1,0,0,1,89.16197599402491,47.215199999999996)"><svg viewBox="0 0 217.19604801195015 152.7696" height="152.7696" width="217.19604801195015"><g><svg viewBox="0 0 244.43135999999998 171.92615352099526" height="152.7696" width="217.19604801195015"><g transform="matrix(1,0,0,1,0,123.12055758645255)"><svg viewBox="0 0 244.43135999999998 48.805595934542715" height="48.805595934542715" width="244.43135999999998"><g id="SvgjsG1392"><svg viewBox="0 0 244.43135999999998 48.805595934542715" height="48.805595934542715" width="244.43135999999998" id="SvgjsSvg1391"><g><svg viewBox="0 0 244.43135999999998 48.805595934542715" height="48.805595934542715" width="244.43135999999998"><g transform="matrix(1,0,0,1,0,0)"><svg width="244.43135999999998" viewBox="1.4853900000000009 -35.5937 236.94486000000003 47.3107583803866" height="48.805595934542715" data-palette-color="url(#06918d91-613b-4972-b238-36e9ccb473b6)"><path d="M5.374 10.787v0c-0.624 0.106-1.055 0.161-1.29 0.168v0c-0.092-1.945 0.101-6.958 0.581-15.037 0.478-8.086 0.543-13.165 0.192-15.236v0c-0.067-0.394-0.388-0.874-0.963-1.439-0.568-0.56-1.118-1.014-1.651-1.364v0l-0.758-0.582 0.015-0.814c4.365-1.617 9.062-2.851 14.09-3.701v0c6.054-1.024 9.484 0.847 10.29 5.613v0c0.395 2.334 0.17 4.562-0.675 6.686-0.838 2.123-2.401 3.935-4.689 5.438v0c2.886 5.834 5.14 9.547 6.762 11.138v0c0.719 0.656 1.243 0.956 1.572 0.901v0c0.592-0.1 1.462-0.551 2.611-1.354v0l0.542-0.396 1.442 1.632c-1.027 1.323-2.278 2.481-3.753 3.475-1.468 0.992-2.903 1.606-4.303 1.843-1.4 0.237-2.652-0.17-3.756-1.221-1.109-1.043-2.23-2.669-3.361-4.878-1.139-2.215-2.394-5.082-3.767-8.602v0c-1.041 0.244-1.84 0.413-2.399 0.507v0c-0.458 7.488-0.555 12.511-0.291 15.069v0c-1.297 0.929-3.444 1.647-6.441 2.154zM12.279-9.914l1.183-0.2c1.972-0.333 3.378-1.477 4.217-3.431 0.833-1.953 1.043-4.145 0.632-6.577v0c-0.217-1.282-0.622-2.278-1.215-2.99-0.594-0.711-1.35-0.989-2.271-0.833v0c-0.394 0.067-0.852 0.201-1.372 0.405-0.526 0.211-0.786 0.332-0.78 0.365v0c0.047 3.474-0.085 7.895-0.394 13.261zM46.368-16.605v0c0.058-0.074 0.187-0.527 0.387-1.358v0c1.555-0.191 3.7 0.016 6.434 0.62v0c-0.496 2.848-0.809 5.802-0.937 8.861-0.128 3.058-0.114 5.223 0.042 6.493 0.157 1.277 0.368 1.899 0.633 1.867v0c0.199-0.024 0.891-0.429 2.077-1.212v0l0.559-0.371 1.107 1.627c-0.265 0.301-0.615 0.68-1.049 1.136-0.428 0.456-1.265 1.102-2.512 1.941-1.24 0.844-2.389 1.331-3.448 1.461v0c-2.051 0.252-3.356-0.528-3.915-2.34v0c-1.89 2.113-3.688 3.274-5.395 3.484-1.707 0.21-3.228-0.275-4.561-1.455-1.34-1.179-2.186-3.194-2.537-6.046v0c-0.545-4.433-0.065-8.045 1.44-10.836 1.505-2.784 3.551-4.335 6.138-4.653v0c1.853-0.228 3.698 0.033 5.537 0.781zM42.791 1.022v0c0.794-0.098 1.649-0.522 2.564-1.272v0c-0.342-4.7-0.132-9.414 0.63-14.142v0c-1.045-0.308-1.915-0.42-2.61-0.334v0c-1.191 0.146-2.067 1.436-2.628 3.869-0.553 2.439-0.657 5.065-0.312 7.877 0.346 2.819 1.131 4.153 2.356 4.002zM79.789-3.696l1.091 1.666c-2.63 2.659-5.014 4.077-7.154 4.254-2.146 0.177-3.473-0.783-3.981-2.882v0c-0.914 1.079-1.963 1.952-3.145 2.618-1.182 0.666-2.242 1.038-3.179 1.116v0c-1.595 0.132-3.014-0.453-4.259-1.755-1.245-1.302-1.988-3.418-2.23-6.348v0c-0.363-4.385 0.282-7.91 1.935-10.575 1.653-2.659 3.652-4.085 5.998-4.279 2.345-0.194 4.359 0.175 6.041 1.106v0c0.584-5.473 0.749-9.755 0.493-12.844v0l-0.422-2.073c2.42-1.07 4.829-1.704 7.228-1.902v0c0.312 0.543 0.499 1.18 0.559 1.911v0c0.201 2.425-0.123 7.412-0.97 14.961-0.854 7.549-1.171 12.656-0.951 15.32v0c0.066 0.797 0.282 1.181 0.647 1.151v0c0.199-0.016 0.808-0.385 1.826-1.105v0zM67.529-17.141v0c-1.163 0.096-2.075 1.325-2.735 3.688-0.654 2.362-0.889 4.666-0.703 6.911 0.186 2.246 0.461 3.671 0.825 4.277 0.371 0.605 0.872 0.881 1.504 0.829v0c1.096-0.091 2.139-0.628 3.127-1.614v0c-0.01-1.337 0.372-5.82 1.146-13.45v0c-1.179-0.505-2.233-0.718-3.164-0.641zM91.539-18.588c0.073 1.398-0.252 3.828-0.973 7.29-0.721 3.462-1.055 5.716-1 6.761 0.055 1.052 0.232 1.57 0.531 1.555v0c0.2-0.01 0.949-0.366 2.248-1.068v0l0.583-0.331 0.94 1.704c-0.286 0.282-0.668 0.636-1.147 1.06-0.479 0.425-1.383 1.013-2.712 1.764-1.336 0.757-2.586 1.166-3.751 1.226-1.165 0.061-2.099-0.251-2.803-0.936-0.703-0.678-1.086-1.626-1.149-2.844-0.063-1.212 0.241-3.397 0.911-6.556 0.67-3.159 0.981-5.205 0.933-6.137v0c-0.073-1.398-0.574-2.691-1.503-3.877v0l-0.481-0.576 0.017-0.652c1.738-0.591 4.591-0.99 8.559-1.195v0c0.459 0.477 0.724 1.414 0.797 2.812zM85.405-26.611c-0.7-0.618-1.078-1.476-1.136-2.574-0.057-1.099 0.352-2.088 1.228-2.968 0.876-0.88 1.912-1.351 3.111-1.413 1.198-0.062 2.148 0.222 2.848 0.853 0.7 0.631 1.079 1.486 1.135 2.565 0.056 1.085-0.37 2.069-1.279 2.95-0.902 0.881-1.936 1.352-3.101 1.413-1.172 0.061-2.107-0.214-2.806-0.826zM102.434 0.82v0c-2.306 0.046-4.125-0.728-5.457-2.322-1.332-1.587-2.027-3.834-2.084-6.74v0c-0.073-3.699 0.856-6.902 2.79-9.607 1.927-2.705 4.643-4.093 8.149-4.163v0l1.801 0.064c0.561-0.311 1.191-0.474 1.891-0.487v0c2.633-0.052 3.999 2.404 4.097 7.37v0c1.365-0.094 2.748-0.305 4.148-0.633v0l0.796-0.215 0.339 1.943c-1.091 0.488-2.569 0.935-4.434 1.339v0l-0.996 0.219c-0.564 3.519-1.786 6.587-3.668 9.205-1.882 2.625-4.339 3.967-7.372 4.027zM105.049-3.533v0c1.4-0.028 2.638-0.953 3.715-2.774 1.084-1.829 1.823-3.747 2.216-5.755v0c-3.566 0.071-5.375-1.227-5.428-3.893v0c-0.021-1.066 0.176-2.071 0.59-3.012v0l0.24-0.505c-0.135-0.064-0.302-0.094-0.502-0.09-0.2 0.004-0.349 0.04-0.448 0.109v0c-0.823 0.55-1.581 1.815-2.275 3.796-0.694 1.981-1.016 4.238-0.965 6.77v0c0.072 3.606 1.024 5.391 2.857 5.354zM138.938 0.996c-1.3-0.025-2.361-0.471-3.185-1.34-0.817-0.862-1.212-2.02-1.185-3.473 0.027-1.446 0.842-5.542 2.443-12.286v0c-0.869-0.216-2.271-0.343-4.203-0.38-1.933-0.037-3.786 0.095-5.559 0.395v0c-1.845 7.64-2.842 12.758-2.991 15.356v0c-1.212 0.644-3.755 0.929-7.627 0.856v0l-0.5-0.01c0.128-1.465 1.104-5.833 2.928-13.107 1.818-7.274 2.965-12.739 3.441-16.397v0c0.01-0.533-0.148-1.18-0.473-1.94-0.319-0.753-0.641-1.366-0.965-1.838v0l-0.537-0.711 0.164-0.747c1.984-0.529 5.109-0.753 9.375-0.672v0c0.387 0.674 0.567 1.761 0.538 3.26-0.028 1.5-0.857 5.621-2.485 12.366v0l9.659 0.183c1.279-5.917 1.959-10.141 2.04-12.674v0c0.011-0.567-0.014-1.034-0.073-1.402v0c2.686-0.983 5.378-1.448 8.077-1.397v0c0.096 0.202 0.137 0.703 0.122 1.503v0c-0.035 1.833-0.931 6.537-2.688 14.111-1.764 7.568-2.665 12.388-2.704 14.462v0c-0.017 0.9 0.124 1.353 0.424 1.358 0.3 0.006 1.325-0.408 3.074-1.242v0l0.865 1.867c-3.017 2.643-5.676 3.943-7.975 3.899zM149.337-7.932v0c0.268-4.158 1.737-7.364 4.407-9.617 2.67-2.246 5.601-3.267 8.795-3.061v0c1.963 0.126 3.545 0.713 4.747 1.758 1.202 1.046 1.751 2.374 1.647 3.984-0.104 1.617-0.597 2.948-1.48 3.994-0.889 1.045-1.935 1.829-3.137 2.353v0c-2.437 1.012-4.646 1.605-6.628 1.778v0l-1.207 0.072c0.031 3.148 1.211 4.798 3.539 4.948v0c0.798 0.051 1.659-0.094 2.583-0.435 0.924-0.341 1.648-0.696 2.173-1.063v0l0.787-0.55 1.095 1.674c-0.29 0.349-0.853 0.797-1.69 1.344-0.837 0.547-1.617 0.998-2.342 1.352v0c-1.998 0.94-4.144 1.336-6.439 1.189-2.302-0.148-4.066-1.08-5.292-2.796-1.226-1.716-1.745-4.024-1.558-6.924zM156.588-9.119c1.716-0.19 3.109-0.819 4.18-1.885 1.071-1.067 1.664-2.498 1.779-4.295 0.116-1.796-0.359-2.729-1.423-2.797v0c-1.264-0.081-2.308 0.927-3.131 3.025-0.817 2.105-1.285 4.089-1.405 5.952zM185.396-17.083v0c0.073-0.06 0.299-0.473 0.676-1.239v0c1.559 0.156 3.605 0.83 6.139 2.022v0c-1.111 2.669-2.066 5.481-2.864 8.436-0.798 2.955-1.261 5.07-1.388 6.344-0.128 1.28-0.06 1.934 0.205 1.96v0c0.199 0.02 0.964-0.222 2.294-0.725v0l0.627-0.239 0.721 1.831c-0.325 0.235-0.75 0.528-1.274 0.877-0.517 0.35-1.477 0.797-2.877 1.34-1.395 0.55-2.623 0.773-3.685 0.667v0c-2.056-0.206-3.157-1.254-3.303-3.145v0c-2.309 1.645-4.319 2.382-6.03 2.211-1.711-0.171-3.088-0.979-4.13-2.424-1.048-1.445-1.429-3.597-1.142-6.455v0c0.445-4.444 1.708-7.862 3.79-10.254 2.081-2.385 4.419-3.447 7.012-3.188v0c1.857 0.186 3.6 0.846 5.229 1.981zM178.025-0.675v0c0.796 0.08 1.723-0.146 2.781-0.677v0c0.701-4.66 1.944-9.212 3.729-13.656v0c-0.952-0.531-1.776-0.831-2.473-0.901v0c-1.194-0.119-2.332 0.946-3.415 3.196-1.077 2.257-1.756 4.796-2.039 7.615-0.283 2.826 0.189 4.3 1.417 4.423zM215.155 2.868l0.697 1.865c-3.151 2.015-5.789 2.873-7.915 2.575-2.132-0.299-3.215-1.529-3.249-3.688v0c-1.129 0.851-2.344 1.472-3.644 1.861-1.3 0.39-2.416 0.519-3.346 0.389v0c-1.584-0.222-2.841-1.106-3.769-2.65-0.928-1.544-1.187-3.772-0.778-6.683v0c0.612-4.357 2.017-7.654 4.216-9.89 2.198-2.229 4.462-3.181 6.793-2.853 2.33 0.327 4.214 1.13 5.65 2.409v0c1.775-5.21 2.878-9.351 3.308-12.421v0l0.045-2.114c2.596-0.511 5.086-0.599 7.469-0.264v0c0.185 0.598 0.227 1.26 0.125 1.986v0c-0.338 2.41-1.752 7.203-4.24 14.381-2.495 7.176-3.929 12.088-4.301 14.735v0c-0.111 0.792 0.015 1.214 0.378 1.265v0c0.198 0.028 0.873-0.197 2.024-0.676v0zM206.156-12.947v0c-1.155-0.162-2.315 0.836-3.48 2.995-1.158 2.16-1.894 4.356-2.208 6.588-0.313 2.231-0.359 3.683-0.136 4.353 0.229 0.672 0.657 1.052 1.284 1.139v0c1.089 0.153 2.225-0.142 3.406-0.885v0c0.284-1.306 1.644-5.596 4.079-12.868v0c-1.039-0.752-2.021-1.192-2.945-1.322zM225.904-12.856v0l9.338 2.087c1.05 0.189 2.059 0.32 3.029 0.392v0l0.159 1.654-1.129 0.915c-2.155 1.814-4.583 4.012-7.283 6.595-2.7 2.583-4.172 3.988-4.416 4.214v0c2.823 1.626 5.006 2.577 6.548 2.855v0c0.492 0.089 0.854 0.052 1.086-0.11v0c0.348-0.242 0.841-0.814 1.477-1.715v0l1.415 0.61c-0.897 3.666-2.076 5.892-3.539 6.679v0c-0.712 0.38-1.527 0.487-2.445 0.322-0.919-0.165-2.286-0.997-4.103-2.496-1.818-1.492-3.321-2.514-4.509-3.067v0c-1.714 1.622-2.834 2.386-3.358 2.292-0.525-0.094-1.103-0.649-1.733-1.663-0.632-1.008-0.903-1.758-0.815-2.25 0.089-0.492 0.759-1.245 2.012-2.259 1.246-1.015 2.427-1.423 3.542-1.223v0c0.23 0.041 0.407 0.09 0.533 0.147v0c3.13-2.112 6.057-4.617 8.779-7.514v0c-2.827-0.475-4.815-0.741-5.963-0.799-1.143-0.05-2.292 0.126-3.448 0.528v0c-0.056-1.195 0.027-2.41 0.249-3.643 0.221-1.227 0.428-2.094 0.621-2.602v0c0.503-0.35 1.821-0.333 3.953 0.051z" opacity="1" transform="matrix(1,0,0,1,0,0)" fill="black" class="wordmark-text-0" id="SvgjsPath1390"></path></svg></g></svg></g></svg></g></svg></g><g transform="matrix(1,0,0,1,66.68504138079047,0)"><svg viewBox="0 0 111.06127723841905 108.97508682648433" height="108.97508682648433" width="111.06127723841905"><g><svg xmlns="http://www.w3.org/2000/svg" xmlns:xlink="http://www.w3.org/1999/xlink" version="1.1" x="0" y="0" viewBox="0 0.00024972056642233453 100 98.12158615152946" enable-background="new 0 0 100 100" xml:space="preserve" height="108.97508682648433" width="111.06127723841905" class="icon-icon-0" data-fill-palette-color="accent" id="SvgjsSvg1389"><g fill="black"><path d="M65.527 39.148c-8.535 0-15.683 5.875-17.668 13.797H10.157v1.929h37.329c-0.088 0.639-0.144 1.288-0.164 1.947H10.157v1.929h37.205c0.049 0.659 0.129 1.308 0.247 1.946H10.157v1.929h37.911c0.199 0.666 0.432 1.315 0.703 1.947H10.157v1.929h39.597c0.394 0.679 0.83 1.327 1.305 1.946H10.157v1.929h42.589c0.725 0.714 1.512 1.361 2.348 1.947H10.157v1.929h48.464c2.131 0.874 4.461 1.362 6.906 1.362s4.777-0.488 6.908-1.362h16.123v-1.929H75.961c0.836-0.586 1.625-1.233 2.35-1.947h10.248v-1.929h-8.562c0.477-0.619 0.912-1.268 1.305-1.946h7.258v-1.929h-6.273c0.27-0.632 0.502-1.281 0.703-1.947h5.57v-1.929h-5.113c0.119-0.639 0.197-1.287 0.248-1.946h4.865v-1.929h-4.826c-0.02-0.659-0.074-1.309-0.162-1.947h4.988v-1.929h-5.363C81.211 45.023 74.066 39.148 65.527 39.148zM65.527 46.016c6.277 0 11.365 5.089 11.365 11.366 0 6.277-5.088 11.365-11.365 11.365-6.275 0-11.367-5.088-11.367-11.365C54.16 51.105 59.252 46.016 65.527 46.016z" fill="black"></path><circle cx="65.527" cy="57.382" r="2.8" fill="black"></circle><rect x="10.157" y="76.198" width="78.402" height="1.929" fill="black"></rect><path d="M95.529 34.213l-0.035-0.104-0.043-0.101c-0.814-1.984-2.541-3.472-4.623-3.983l-0.227-0.057-0.236-0.029c-3.246-0.399-6.508-0.749-9.777-1.053-0.135-0.318-0.33-0.619-0.59-0.879L51.029 0.503c-0.67-0.671-1.757-0.67-2.427 0.001-0.669 0.668-0.67 1.755 0 2.425l24.04 25.325c-7.545-0.517-15.113-0.789-22.639-0.789H50c-13.446 0-27.026 0.833-40.367 2.474l-0.234 0.029L9.17 30.025c-2.082 0.511-3.809 1.999-4.623 3.983l-0.042 0.101-0.036 0.104c-2.728 7.854-4.218 16.084-4.428 24.459C0.013 59.396 0 60.057 0 60.695v0.049L0 60.767 0 60.802c0 9.034 1.504 17.944 4.47 26.483l0.036 0.103 0.042 0.103c0.813 1.982 2.541 3.471 4.623 3.982l0.229 0.057 0.234 0.027c2.65 0.328 5.312 0.612 7.979 0.874-0.098 0.325-0.17 0.662-0.191 1.015-0.143 2.437 1.714 4.524 4.149 4.668 2.434 0.144 4.525-1.715 4.668-4.148 0.016-0.272-0.001-0.538-0.034-0.8 7.927 0.571 15.883 0.868 23.792 0.868 8.123 0 16.293-0.311 24.434-0.912-0.037 0.274-0.053 0.557-0.037 0.844 0.145 2.434 2.236 4.292 4.668 4.148 2.436-0.144 4.293-2.231 4.15-4.668-0.021-0.376-0.105-0.73-0.215-1.075 2.461-0.247 4.92-0.511 7.367-0.813l0.236-0.027 0.227-0.057c2.082-0.512 3.809-2 4.623-3.982l0.043-0.103 0.035-0.103C98.496 78.746 100 69.836 100 60.802v-0.049-0.023-0.034C100 51.662 98.496 42.752 95.529 34.213zM96.014 60.802c0 8.823-1.508 17.287-4.248 25.176-0.33 0.806-1.027 1.414-1.887 1.625-13.068 1.608-26.375 2.444-39.878 2.444H50c0 0 0 0-0.001 0h-0.001c-13.503 0-26.81-0.836-39.878-2.444-0.859-0.211-1.555-0.819-1.886-1.625-2.74-7.889-4.249-16.353-4.249-25.176 0-0.017 0.001-0.034 0.001-0.051 0-0.02-0.001-0.037-0.001-0.056 0-0.644 0.016-1.272 0.041-1.895 0.2-8.138 1.665-15.959 4.208-23.281 0.331-0.805 1.027-1.415 1.886-1.625 13.069-1.608 26.375-2.443 39.878-2.443 0.001 0 0.001 0 0.001 0 0.001 0 0.001 0 0.001 0 0.001 0 0.002 0 0.004 0 9.217 0 18.34 0.399 27.359 1.156 0.299 0.077 0.604 0.103 0.91 0.077 3.887 0.339 7.758 0.736 11.605 1.21 0.859 0.211 1.557 0.82 1.887 1.625 2.74 7.889 4.248 16.354 4.248 25.176 0 0.016 0 0.033 0 0.051C96.014 60.765 96.014 60.783 96.014 60.802z" fill="black"></path></g></svg></g></svg></g><g></g></svg></g></svg></g><g><path d="M124.166 43.741A108.598 108.598 0 0 1 271.354 43.741L270.027 43.741A107.271 107.271 0 0 0 125.493 43.741L124.166 43.741M124.166 203.459A108.598 108.598 0 0 0 271.354 203.459L270.027 203.459A107.271 107.271 0 0 1 125.493 203.459L124.166 203.459" fill="black" stroke="transparent"></path></g></svg></g><defs><mask></mask></defs></svg><rect width="395.52" height="247.2" fill="black" stroke="none" visibility="hidden"></rect></g></mask></svg><rect width="395.52" height="247.2" fill="black" stroke="none" visibility="hidden"></rect></g></mask><linearGradient x1="0" x2="1" y1="0.5" y2="0.5" id="5d1c2921-6432-428e-b8ec-2afa531efa96"><stop stop-color="#ffa62e" offset="0"></stop><stop stop-color="#f71b3d" offset="1"></stop></linearGradient><rect width="395.52" height="247.2" fill="#ffffff" mask="url(#e061fdff-4a21-4736-9026-dad7e019dd3d)" data-fill-palette-color="accent"></rect><mask id="ad832500-62c1-429e-b456-5cdb6c382a8d"><g id="SvgjsG1415"><svg viewBox="0 0 395.52 247.2" height="247.2" width="395.52"><g><svg></svg></g><g><svg viewBox="0 0 395.52 247.2" height="247.2" width="395.52"><g transform="matrix(1,0,0,1,89.16197599402491,47.215199999999996)"><svg viewBox="0 0 217.19604801195015 152.7696" height="152.7696" width="217.19604801195015"><g><svg viewBox="0 0 244.43135999999998 171.92615352099526" height="152.7696" width="217.19604801195015"><g transform="matrix(1,0,0,1,0,123.12055758645255)"><svg viewBox="0 0 244.43135999999998 48.805595934542715" height="48.805595934542715" width="244.43135999999998"><g id="SvgjsG1414"><svg viewBox="0 0 244.43135999999998 48.805595934542715" height="48.805595934542715" width="244.43135999999998" id="SvgjsSvg1413"><g><svg viewBox="0 0 244.43135999999998 48.805595934542715" height="48.805595934542715" width="244.43135999999998"><g transform="matrix(1,0,0,1,0,0)"><svg width="244.43135999999998" viewBox="1.4853900000000009 -35.5937 236.94486000000003 47.3107583803866" height="48.805595934542715" data-palette-color="url(#06918d91-613b-4972-b238-36e9ccb473b6)"></svg></g></svg></g></svg></g></svg></g><g transform="matrix(1,0,0,1,66.68504138079047,0)"><svg viewBox="0 0 111.06127723841905 108.97508682648433" height="108.97508682648433" width="111.06127723841905"><g><svg xmlns="http://www.w3.org/2000/svg" xmlns:xlink="http://www.w3.org/1999/xlink" version="1.1" x="0" y="0" viewBox="0 0.00024972056642233453 100 98.12158615152946" enable-background="new 0 0 100 100" xml:space="preserve" height="108.97508682648433" width="111.06127723841905" class="icon-icon-0" data-fill-palette-color="accent" id="SvgjsSvg1412"></svg></g></svg></g><g></g></svg></g></svg></g><g><path d="M124.166 43.741A108.598 108.598 0 0 1 271.354 43.741L270.027 43.741A107.271 107.271 0 0 0 125.493 43.741L124.166 43.741M124.166 203.459A108.598 108.598 0 0 0 271.354 203.459L270.027 203.459A107.271 107.271 0 0 1 125.493 203.459L124.166 203.459" fill="white" stroke="transparent"></path></g></svg></g><defs><mask></mask></defs><mask><g id="SvgjsG1411"><svg viewBox="0 0 395.52 247.2" height="247.2" width="395.52"><g><svg></svg></g><g><svg viewBox="0 0 395.52 247.2" height="247.2" width="395.52"><g transform="matrix(1,0,0,1,89.16197599402491,47.215199999999996)"><svg viewBox="0 0 217.19604801195015 152.7696" height="152.7696" width="217.19604801195015"><g><svg viewBox="0 0 244.43135999999998 171.92615352099526" height="152.7696" width="217.19604801195015"><g transform="matrix(1,0,0,1,0,123.12055758645255)"><svg viewBox="0 0 244.43135999999998 48.805595934542715" height="48.805595934542715" width="244.43135999999998"><g id="SvgjsG1410"><svg viewBox="0 0 244.43135999999998 48.805595934542715" height="48.805595934542715" width="244.43135999999998" id="SvgjsSvg1409"><g><svg viewBox="0 0 244.43135999999998 48.805595934542715" height="48.805595934542715" width="244.43135999999998"><g transform="matrix(1,0,0,1,0,0)"><svg width="244.43135999999998" viewBox="1.4853900000000009 -35.5937 236.94486000000003 47.3107583803866" height="48.805595934542715" data-palette-color="url(#06918d91-613b-4972-b238-36e9ccb473b6)"><path d="M5.374 10.787v0c-0.624 0.106-1.055 0.161-1.29 0.168v0c-0.092-1.945 0.101-6.958 0.581-15.037 0.478-8.086 0.543-13.165 0.192-15.236v0c-0.067-0.394-0.388-0.874-0.963-1.439-0.568-0.56-1.118-1.014-1.651-1.364v0l-0.758-0.582 0.015-0.814c4.365-1.617 9.062-2.851 14.09-3.701v0c6.054-1.024 9.484 0.847 10.29 5.613v0c0.395 2.334 0.17 4.562-0.675 6.686-0.838 2.123-2.401 3.935-4.689 5.438v0c2.886 5.834 5.14 9.547 6.762 11.138v0c0.719 0.656 1.243 0.956 1.572 0.901v0c0.592-0.1 1.462-0.551 2.611-1.354v0l0.542-0.396 1.442 1.632c-1.027 1.323-2.278 2.481-3.753 3.475-1.468 0.992-2.903 1.606-4.303 1.843-1.4 0.237-2.652-0.17-3.756-1.221-1.109-1.043-2.23-2.669-3.361-4.878-1.139-2.215-2.394-5.082-3.767-8.602v0c-1.041 0.244-1.84 0.413-2.399 0.507v0c-0.458 7.488-0.555 12.511-0.291 15.069v0c-1.297 0.929-3.444 1.647-6.441 2.154zM12.279-9.914l1.183-0.2c1.972-0.333 3.378-1.477 4.217-3.431 0.833-1.953 1.043-4.145 0.632-6.577v0c-0.217-1.282-0.622-2.278-1.215-2.99-0.594-0.711-1.35-0.989-2.271-0.833v0c-0.394 0.067-0.852 0.201-1.372 0.405-0.526 0.211-0.786 0.332-0.78 0.365v0c0.047 3.474-0.085 7.895-0.394 13.261zM46.368-16.605v0c0.058-0.074 0.187-0.527 0.387-1.358v0c1.555-0.191 3.7 0.016 6.434 0.62v0c-0.496 2.848-0.809 5.802-0.937 8.861-0.128 3.058-0.114 5.223 0.042 6.493 0.157 1.277 0.368 1.899 0.633 1.867v0c0.199-0.024 0.891-0.429 2.077-1.212v0l0.559-0.371 1.107 1.627c-0.265 0.301-0.615 0.68-1.049 1.136-0.428 0.456-1.265 1.102-2.512 1.941-1.24 0.844-2.389 1.331-3.448 1.461v0c-2.051 0.252-3.356-0.528-3.915-2.34v0c-1.89 2.113-3.688 3.274-5.395 3.484-1.707 0.21-3.228-0.275-4.561-1.455-1.34-1.179-2.186-3.194-2.537-6.046v0c-0.545-4.433-0.065-8.045 1.44-10.836 1.505-2.784 3.551-4.335 6.138-4.653v0c1.853-0.228 3.698 0.033 5.537 0.781zM42.791 1.022v0c0.794-0.098 1.649-0.522 2.564-1.272v0c-0.342-4.7-0.132-9.414 0.63-14.142v0c-1.045-0.308-1.915-0.42-2.61-0.334v0c-1.191 0.146-2.067 1.436-2.628 3.869-0.553 2.439-0.657 5.065-0.312 7.877 0.346 2.819 1.131 4.153 2.356 4.002zM79.789-3.696l1.091 1.666c-2.63 2.659-5.014 4.077-7.154 4.254-2.146 0.177-3.473-0.783-3.981-2.882v0c-0.914 1.079-1.963 1.952-3.145 2.618-1.182 0.666-2.242 1.038-3.179 1.116v0c-1.595 0.132-3.014-0.453-4.259-1.755-1.245-1.302-1.988-3.418-2.23-6.348v0c-0.363-4.385 0.282-7.91 1.935-10.575 1.653-2.659 3.652-4.085 5.998-4.279 2.345-0.194 4.359 0.175 6.041 1.106v0c0.584-5.473 0.749-9.755 0.493-12.844v0l-0.422-2.073c2.42-1.07 4.829-1.704 7.228-1.902v0c0.312 0.543 0.499 1.18 0.559 1.911v0c0.201 2.425-0.123 7.412-0.97 14.961-0.854 7.549-1.171 12.656-0.951 15.32v0c0.066 0.797 0.282 1.181 0.647 1.151v0c0.199-0.016 0.808-0.385 1.826-1.105v0zM67.529-17.141v0c-1.163 0.096-2.075 1.325-2.735 3.688-0.654 2.362-0.889 4.666-0.703 6.911 0.186 2.246 0.461 3.671 0.825 4.277 0.371 0.605 0.872 0.881 1.504 0.829v0c1.096-0.091 2.139-0.628 3.127-1.614v0c-0.01-1.337 0.372-5.82 1.146-13.45v0c-1.179-0.505-2.233-0.718-3.164-0.641zM91.539-18.588c0.073 1.398-0.252 3.828-0.973 7.29-0.721 3.462-1.055 5.716-1 6.761 0.055 1.052 0.232 1.57 0.531 1.555v0c0.2-0.01 0.949-0.366 2.248-1.068v0l0.583-0.331 0.94 1.704c-0.286 0.282-0.668 0.636-1.147 1.06-0.479 0.425-1.383 1.013-2.712 1.764-1.336 0.757-2.586 1.166-3.751 1.226-1.165 0.061-2.099-0.251-2.803-0.936-0.703-0.678-1.086-1.626-1.149-2.844-0.063-1.212 0.241-3.397 0.911-6.556 0.67-3.159 0.981-5.205 0.933-6.137v0c-0.073-1.398-0.574-2.691-1.503-3.877v0l-0.481-0.576 0.017-0.652c1.738-0.591 4.591-0.99 8.559-1.195v0c0.459 0.477 0.724 1.414 0.797 2.812zM85.405-26.611c-0.7-0.618-1.078-1.476-1.136-2.574-0.057-1.099 0.352-2.088 1.228-2.968 0.876-0.88 1.912-1.351 3.111-1.413 1.198-0.062 2.148 0.222 2.848 0.853 0.7 0.631 1.079 1.486 1.135 2.565 0.056 1.085-0.37 2.069-1.279 2.95-0.902 0.881-1.936 1.352-3.101 1.413-1.172 0.061-2.107-0.214-2.806-0.826zM102.434 0.82v0c-2.306 0.046-4.125-0.728-5.457-2.322-1.332-1.587-2.027-3.834-2.084-6.74v0c-0.073-3.699 0.856-6.902 2.79-9.607 1.927-2.705 4.643-4.093 8.149-4.163v0l1.801 0.064c0.561-0.311 1.191-0.474 1.891-0.487v0c2.633-0.052 3.999 2.404 4.097 7.37v0c1.365-0.094 2.748-0.305 4.148-0.633v0l0.796-0.215 0.339 1.943c-1.091 0.488-2.569 0.935-4.434 1.339v0l-0.996 0.219c-0.564 3.519-1.786 6.587-3.668 9.205-1.882 2.625-4.339 3.967-7.372 4.027zM105.049-3.533v0c1.4-0.028 2.638-0.953 3.715-2.774 1.084-1.829 1.823-3.747 2.216-5.755v0c-3.566 0.071-5.375-1.227-5.428-3.893v0c-0.021-1.066 0.176-2.071 0.59-3.012v0l0.24-0.505c-0.135-0.064-0.302-0.094-0.502-0.09-0.2 0.004-0.349 0.04-0.448 0.109v0c-0.823 0.55-1.581 1.815-2.275 3.796-0.694 1.981-1.016 4.238-0.965 6.77v0c0.072 3.606 1.024 5.391 2.857 5.354zM138.938 0.996c-1.3-0.025-2.361-0.471-3.185-1.34-0.817-0.862-1.212-2.02-1.185-3.473 0.027-1.446 0.842-5.542 2.443-12.286v0c-0.869-0.216-2.271-0.343-4.203-0.38-1.933-0.037-3.786 0.095-5.559 0.395v0c-1.845 7.64-2.842 12.758-2.991 15.356v0c-1.212 0.644-3.755 0.929-7.627 0.856v0l-0.5-0.01c0.128-1.465 1.104-5.833 2.928-13.107 1.818-7.274 2.965-12.739 3.441-16.397v0c0.01-0.533-0.148-1.18-0.473-1.94-0.319-0.753-0.641-1.366-0.965-1.838v0l-0.537-0.711 0.164-0.747c1.984-0.529 5.109-0.753 9.375-0.672v0c0.387 0.674 0.567 1.761 0.538 3.26-0.028 1.5-0.857 5.621-2.485 12.366v0l9.659 0.183c1.279-5.917 1.959-10.141 2.04-12.674v0c0.011-0.567-0.014-1.034-0.073-1.402v0c2.686-0.983 5.378-1.448 8.077-1.397v0c0.096 0.202 0.137 0.703 0.122 1.503v0c-0.035 1.833-0.931 6.537-2.688 14.111-1.764 7.568-2.665 12.388-2.704 14.462v0c-0.017 0.9 0.124 1.353 0.424 1.358 0.3 0.006 1.325-0.408 3.074-1.242v0l0.865 1.867c-3.017 2.643-5.676 3.943-7.975 3.899zM149.337-7.932v0c0.268-4.158 1.737-7.364 4.407-9.617 2.67-2.246 5.601-3.267 8.795-3.061v0c1.963 0.126 3.545 0.713 4.747 1.758 1.202 1.046 1.751 2.374 1.647 3.984-0.104 1.617-0.597 2.948-1.48 3.994-0.889 1.045-1.935 1.829-3.137 2.353v0c-2.437 1.012-4.646 1.605-6.628 1.778v0l-1.207 0.072c0.031 3.148 1.211 4.798 3.539 4.948v0c0.798 0.051 1.659-0.094 2.583-0.435 0.924-0.341 1.648-0.696 2.173-1.063v0l0.787-0.55 1.095 1.674c-0.29 0.349-0.853 0.797-1.69 1.344-0.837 0.547-1.617 0.998-2.342 1.352v0c-1.998 0.94-4.144 1.336-6.439 1.189-2.302-0.148-4.066-1.08-5.292-2.796-1.226-1.716-1.745-4.024-1.558-6.924zM156.588-9.119c1.716-0.19 3.109-0.819 4.18-1.885 1.071-1.067 1.664-2.498 1.779-4.295 0.116-1.796-0.359-2.729-1.423-2.797v0c-1.264-0.081-2.308 0.927-3.131 3.025-0.817 2.105-1.285 4.089-1.405 5.952zM185.396-17.083v0c0.073-0.06 0.299-0.473 0.676-1.239v0c1.559 0.156 3.605 0.83 6.139 2.022v0c-1.111 2.669-2.066 5.481-2.864 8.436-0.798 2.955-1.261 5.07-1.388 6.344-0.128 1.28-0.06 1.934 0.205 1.96v0c0.199 0.02 0.964-0.222 2.294-0.725v0l0.627-0.239 0.721 1.831c-0.325 0.235-0.75 0.528-1.274 0.877-0.517 0.35-1.477 0.797-2.877 1.34-1.395 0.55-2.623 0.773-3.685 0.667v0c-2.056-0.206-3.157-1.254-3.303-3.145v0c-2.309 1.645-4.319 2.382-6.03 2.211-1.711-0.171-3.088-0.979-4.13-2.424-1.048-1.445-1.429-3.597-1.142-6.455v0c0.445-4.444 1.708-7.862 3.79-10.254 2.081-2.385 4.419-3.447 7.012-3.188v0c1.857 0.186 3.6 0.846 5.229 1.981zM178.025-0.675v0c0.796 0.08 1.723-0.146 2.781-0.677v0c0.701-4.66 1.944-9.212 3.729-13.656v0c-0.952-0.531-1.776-0.831-2.473-0.901v0c-1.194-0.119-2.332 0.946-3.415 3.196-1.077 2.257-1.756 4.796-2.039 7.615-0.283 2.826 0.189 4.3 1.417 4.423zM215.155 2.868l0.697 1.865c-3.151 2.015-5.789 2.873-7.915 2.575-2.132-0.299-3.215-1.529-3.249-3.688v0c-1.129 0.851-2.344 1.472-3.644 1.861-1.3 0.39-2.416 0.519-3.346 0.389v0c-1.584-0.222-2.841-1.106-3.769-2.65-0.928-1.544-1.187-3.772-0.778-6.683v0c0.612-4.357 2.017-7.654 4.216-9.89 2.198-2.229 4.462-3.181 6.793-2.853 2.33 0.327 4.214 1.13 5.65 2.409v0c1.775-5.21 2.878-9.351 3.308-12.421v0l0.045-2.114c2.596-0.511 5.086-0.599 7.469-0.264v0c0.185 0.598 0.227 1.26 0.125 1.986v0c-0.338 2.41-1.752 7.203-4.24 14.381-2.495 7.176-3.929 12.088-4.301 14.735v0c-0.111 0.792 0.015 1.214 0.378 1.265v0c0.198 0.028 0.873-0.197 2.024-0.676v0zM206.156-12.947v0c-1.155-0.162-2.315 0.836-3.48 2.995-1.158 2.16-1.894 4.356-2.208 6.588-0.313 2.231-0.359 3.683-0.136 4.353 0.229 0.672 0.657 1.052 1.284 1.139v0c1.089 0.153 2.225-0.142 3.406-0.885v0c0.284-1.306 1.644-5.596 4.079-12.868v0c-1.039-0.752-2.021-1.192-2.945-1.322zM225.904-12.856v0l9.338 2.087c1.05 0.189 2.059 0.32 3.029 0.392v0l0.159 1.654-1.129 0.915c-2.155 1.814-4.583 4.012-7.283 6.595-2.7 2.583-4.172 3.988-4.416 4.214v0c2.823 1.626 5.006 2.577 6.548 2.855v0c0.492 0.089 0.854 0.052 1.086-0.11v0c0.348-0.242 0.841-0.814 1.477-1.715v0l1.415 0.61c-0.897 3.666-2.076 5.892-3.539 6.679v0c-0.712 0.38-1.527 0.487-2.445 0.322-0.919-0.165-2.286-0.997-4.103-2.496-1.818-1.492-3.321-2.514-4.509-3.067v0c-1.714 1.622-2.834 2.386-3.358 2.292-0.525-0.094-1.103-0.649-1.733-1.663-0.632-1.008-0.903-1.758-0.815-2.25 0.089-0.492 0.759-1.245 2.012-2.259 1.246-1.015 2.427-1.423 3.542-1.223v0c0.23 0.041 0.407 0.09 0.533 0.147v0c3.13-2.112 6.057-4.617 8.779-7.514v0c-2.827-0.475-4.815-0.741-5.963-0.799-1.143-0.05-2.292 0.126-3.448 0.528v0c-0.056-1.195 0.027-2.41 0.249-3.643 0.221-1.227 0.428-2.094 0.621-2.602v0c0.503-0.35 1.821-0.333 3.953 0.051z" opacity="1" transform="matrix(1,0,0,1,0,0)" fill="black" class="wordmark-text-0" id="SvgjsPath1408"></path></svg></g></svg></g></svg></g></svg></g><g transform="matrix(1,0,0,1,66.68504138079047,0)"><svg viewBox="0 0 111.06127723841905 108.97508682648433" height="108.97508682648433" width="111.06127723841905"><g><svg xmlns="http://www.w3.org/2000/svg" xmlns:xlink="http://www.w3.org/1999/xlink" version="1.1" x="0" y="0" viewBox="0 0.00024972056642233453 100 98.12158615152946" enable-background="new 0 0 100 100" xml:space="preserve" height="108.97508682648433" width="111.06127723841905" class="icon-icon-0" data-fill-palette-color="accent" id="SvgjsSvg1407"><g fill="black"><path d="M65.527 39.148c-8.535 0-15.683 5.875-17.668 13.797H10.157v1.929h37.329c-0.088 0.639-0.144 1.288-0.164 1.947H10.157v1.929h37.205c0.049 0.659 0.129 1.308 0.247 1.946H10.157v1.929h37.911c0.199 0.666 0.432 1.315 0.703 1.947H10.157v1.929h39.597c0.394 0.679 0.83 1.327 1.305 1.946H10.157v1.929h42.589c0.725 0.714 1.512 1.361 2.348 1.947H10.157v1.929h48.464c2.131 0.874 4.461 1.362 6.906 1.362s4.777-0.488 6.908-1.362h16.123v-1.929H75.961c0.836-0.586 1.625-1.233 2.35-1.947h10.248v-1.929h-8.562c0.477-0.619 0.912-1.268 1.305-1.946h7.258v-1.929h-6.273c0.27-0.632 0.502-1.281 0.703-1.947h5.57v-1.929h-5.113c0.119-0.639 0.197-1.287 0.248-1.946h4.865v-1.929h-4.826c-0.02-0.659-0.074-1.309-0.162-1.947h4.988v-1.929h-5.363C81.211 45.023 74.066 39.148 65.527 39.148zM65.527 46.016c6.277 0 11.365 5.089 11.365 11.366 0 6.277-5.088 11.365-11.365 11.365-6.275 0-11.367-5.088-11.367-11.365C54.16 51.105 59.252 46.016 65.527 46.016z" fill="black"></path><circle cx="65.527" cy="57.382" r="2.8" fill="black"></circle><rect x="10.157" y="76.198" width="78.402" height="1.929" fill="black"></rect><path d="M95.529 34.213l-0.035-0.104-0.043-0.101c-0.814-1.984-2.541-3.472-4.623-3.983l-0.227-0.057-0.236-0.029c-3.246-0.399-6.508-0.749-9.777-1.053-0.135-0.318-0.33-0.619-0.59-0.879L51.029 0.503c-0.67-0.671-1.757-0.67-2.427 0.001-0.669 0.668-0.67 1.755 0 2.425l24.04 25.325c-7.545-0.517-15.113-0.789-22.639-0.789H50c-13.446 0-27.026 0.833-40.367 2.474l-0.234 0.029L9.17 30.025c-2.082 0.511-3.809 1.999-4.623 3.983l-0.042 0.101-0.036 0.104c-2.728 7.854-4.218 16.084-4.428 24.459C0.013 59.396 0 60.057 0 60.695v0.049L0 60.767 0 60.802c0 9.034 1.504 17.944 4.47 26.483l0.036 0.103 0.042 0.103c0.813 1.982 2.541 3.471 4.623 3.982l0.229 0.057 0.234 0.027c2.65 0.328 5.312 0.612 7.979 0.874-0.098 0.325-0.17 0.662-0.191 1.015-0.143 2.437 1.714 4.524 4.149 4.668 2.434 0.144 4.525-1.715 4.668-4.148 0.016-0.272-0.001-0.538-0.034-0.8 7.927 0.571 15.883 0.868 23.792 0.868 8.123 0 16.293-0.311 24.434-0.912-0.037 0.274-0.053 0.557-0.037 0.844 0.145 2.434 2.236 4.292 4.668 4.148 2.436-0.144 4.293-2.231 4.15-4.668-0.021-0.376-0.105-0.73-0.215-1.075 2.461-0.247 4.92-0.511 7.367-0.813l0.236-0.027 0.227-0.057c2.082-0.512 3.809-2 4.623-3.982l0.043-0.103 0.035-0.103C98.496 78.746 100 69.836 100 60.802v-0.049-0.023-0.034C100 51.662 98.496 42.752 95.529 34.213zM96.014 60.802c0 8.823-1.508 17.287-4.248 25.176-0.33 0.806-1.027 1.414-1.887 1.625-13.068 1.608-26.375 2.444-39.878 2.444H50c0 0 0 0-0.001 0h-0.001c-13.503 0-26.81-0.836-39.878-2.444-0.859-0.211-1.555-0.819-1.886-1.625-2.74-7.889-4.249-16.353-4.249-25.176 0-0.017 0.001-0.034 0.001-0.051 0-0.02-0.001-0.037-0.001-0.056 0-0.644 0.016-1.272 0.041-1.895 0.2-8.138 1.665-15.959 4.208-23.281 0.331-0.805 1.027-1.415 1.886-1.625 13.069-1.608 26.375-2.443 39.878-2.443 0.001 0 0.001 0 0.001 0 0.001 0 0.001 0 0.001 0 0.001 0 0.002 0 0.004 0 9.217 0 18.34 0.399 27.359 1.156 0.299 0.077 0.604 0.103 0.91 0.077 3.887 0.339 7.758 0.736 11.605 1.21 0.859 0.211 1.557 0.82 1.887 1.625 2.74 7.889 4.248 16.354 4.248 25.176 0 0.016 0 0.033 0 0.051C96.014 60.765 96.014 60.783 96.014 60.802z" fill="black"></path></g></svg></g></svg></g><g></g></svg></g></svg></g><g><path d="M124.166 43.741A108.598 108.598 0 0 1 271.354 43.741L270.027 43.741A107.271 107.271 0 0 0 125.493 43.741L124.166 43.741M124.166 203.459A108.598 108.598 0 0 0 271.354 203.459L270.027 203.459A107.271 107.271 0 0 1 125.493 203.459L124.166 203.459" fill="black" stroke="transparent"></path></g></svg></g><defs><mask></mask></defs></svg><rect width="395.52" height="247.2" fill="black" stroke="none" visibility="hidden"></rect></g></mask><mask><g id="SvgjsG1406"><svg viewBox="0 0 395.52 247.2" height="247.2" width="395.52"><g><svg></svg></g><g><svg viewBox="0 0 395.52 247.2" height="247.2" width="395.52"><g transform="matrix(1,0,0,1,89.16197599402491,47.215199999999996)"><svg viewBox="0 0 217.19604801195015 152.7696" height="152.7696" width="217.19604801195015"><g><svg viewBox="0 0 244.43135999999998 171.92615352099526" height="152.7696" width="217.19604801195015"><g transform="matrix(1,0,0,1,0,123.12055758645255)"><svg viewBox="0 0 244.43135999999998 48.805595934542715" height="48.805595934542715" width="244.43135999999998"><g id="SvgjsG1405"><svg viewBox="0 0 244.43135999999998 48.805595934542715" height="48.805595934542715" width="244.43135999999998" id="SvgjsSvg1404"><g><svg viewBox="0 0 244.43135999999998 48.805595934542715" height="48.805595934542715" width="244.43135999999998"><g transform="matrix(1,0,0,1,0,0)"><svg width="244.43135999999998" viewBox="1.4853900000000009 -35.5937 236.94486000000003 47.3107583803866" height="48.805595934542715" data-palette-color="url(#06918d91-613b-4972-b238-36e9ccb473b6)"></svg></g></svg></g></svg></g></svg></g><g transform="matrix(1,0,0,1,66.68504138079047,0)"><svg viewBox="0 0 111.06127723841905 108.97508682648433" height="108.97508682648433" width="111.06127723841905"><g><svg xmlns="http://www.w3.org/2000/svg" xmlns:xlink="http://www.w3.org/1999/xlink" version="1.1" x="0" y="0" viewBox="0 0.00024972056642233453 100 98.12158615152946" enable-background="new 0 0 100 100" xml:space="preserve" height="108.97508682648433" width="111.06127723841905" class="icon-icon-0" data-fill-palette-color="accent" id="SvgjsSvg1403"><g fill="black"><path d="M65.527 39.148c-8.535 0-15.683 5.875-17.668 13.797H10.157v1.929h37.329c-0.088 0.639-0.144 1.288-0.164 1.947H10.157v1.929h37.205c0.049 0.659 0.129 1.308 0.247 1.946H10.157v1.929h37.911c0.199 0.666 0.432 1.315 0.703 1.947H10.157v1.929h39.597c0.394 0.679 0.83 1.327 1.305 1.946H10.157v1.929h42.589c0.725 0.714 1.512 1.361 2.348 1.947H10.157v1.929h48.464c2.131 0.874 4.461 1.362 6.906 1.362s4.777-0.488 6.908-1.362h16.123v-1.929H75.961c0.836-0.586 1.625-1.233 2.35-1.947h10.248v-1.929h-8.562c0.477-0.619 0.912-1.268 1.305-1.946h7.258v-1.929h-6.273c0.27-0.632 0.502-1.281 0.703-1.947h5.57v-1.929h-5.113c0.119-0.639 0.197-1.287 0.248-1.946h4.865v-1.929h-4.826c-0.02-0.659-0.074-1.309-0.162-1.947h4.988v-1.929h-5.363C81.211 45.023 74.066 39.148 65.527 39.148zM65.527 46.016c6.277 0 11.365 5.089 11.365 11.366 0 6.277-5.088 11.365-11.365 11.365-6.275 0-11.367-5.088-11.367-11.365C54.16 51.105 59.252 46.016 65.527 46.016z" fill="black"></path><circle cx="65.527" cy="57.382" r="2.8" fill="black"></circle><rect x="10.157" y="76.198" width="78.402" height="1.929" fill="black"></rect><path d="M95.529 34.213l-0.035-0.104-0.043-0.101c-0.814-1.984-2.541-3.472-4.623-3.983l-0.227-0.057-0.236-0.029c-3.246-0.399-6.508-0.749-9.777-1.053-0.135-0.318-0.33-0.619-0.59-0.879L51.029 0.503c-0.67-0.671-1.757-0.67-2.427 0.001-0.669 0.668-0.67 1.755 0 2.425l24.04 25.325c-7.545-0.517-15.113-0.789-22.639-0.789H50c-13.446 0-27.026 0.833-40.367 2.474l-0.234 0.029L9.17 30.025c-2.082 0.511-3.809 1.999-4.623 3.983l-0.042 0.101-0.036 0.104c-2.728 7.854-4.218 16.084-4.428 24.459C0.013 59.396 0 60.057 0 60.695v0.049L0 60.767 0 60.802c0 9.034 1.504 17.944 4.47 26.483l0.036 0.103 0.042 0.103c0.813 1.982 2.541 3.471 4.623 3.982l0.229 0.057 0.234 0.027c2.65 0.328 5.312 0.612 7.979 0.874-0.098 0.325-0.17 0.662-0.191 1.015-0.143 2.437 1.714 4.524 4.149 4.668 2.434 0.144 4.525-1.715 4.668-4.148 0.016-0.272-0.001-0.538-0.034-0.8 7.927 0.571 15.883 0.868 23.792 0.868 8.123 0 16.293-0.311 24.434-0.912-0.037 0.274-0.053 0.557-0.037 0.844 0.145 2.434 2.236 4.292 4.668 4.148 2.436-0.144 4.293-2.231 4.15-4.668-0.021-0.376-0.105-0.73-0.215-1.075 2.461-0.247 4.92-0.511 7.367-0.813l0.236-0.027 0.227-0.057c2.082-0.512 3.809-2 4.623-3.982l0.043-0.103 0.035-0.103C98.496 78.746 100 69.836 100 60.802v-0.049-0.023-0.034C100 51.662 98.496 42.752 95.529 34.213zM96.014 60.802c0 8.823-1.508 17.287-4.248 25.176-0.33 0.806-1.027 1.414-1.887 1.625-13.068 1.608-26.375 2.444-39.878 2.444H50c0 0 0 0-0.001 0h-0.001c-13.503 0-26.81-0.836-39.878-2.444-0.859-0.211-1.555-0.819-1.886-1.625-2.74-7.889-4.249-16.353-4.249-25.176 0-0.017 0.001-0.034 0.001-0.051 0-0.02-0.001-0.037-0.001-0.056 0-0.644 0.016-1.272 0.041-1.895 0.2-8.138 1.665-15.959 4.208-23.281 0.331-0.805 1.027-1.415 1.886-1.625 13.069-1.608 26.375-2.443 39.878-2.443 0.001 0 0.001 0 0.001 0 0.001 0 0.001 0 0.001 0 0.001 0 0.002 0 0.004 0 9.217 0 18.34 0.399 27.359 1.156 0.299 0.077 0.604 0.103 0.91 0.077 3.887 0.339 7.758 0.736 11.605 1.21 0.859 0.211 1.557 0.82 1.887 1.625 2.74 7.889 4.248 16.354 4.248 25.176 0 0.016 0 0.033 0 0.051C96.014 60.765 96.014 60.783 96.014 60.802z" fill="black"></path></g></svg></g></svg></g><g></g></svg></g></svg></g><g><path d="M124.166 43.741A108.598 108.598 0 0 1 271.354 43.741L270.027 43.741A107.271 107.271 0 0 0 125.493 43.741L124.166 43.741M124.166 203.459A108.598 108.598 0 0 0 271.354 203.459L270.027 203.459A107.271 107.271 0 0 1 125.493 203.459L124.166 203.459" fill="black" stroke="transparent"></path></g></svg></g><defs><mask></mask></defs><mask><g id="SvgjsG1402"><svg viewBox="0 0 395.52 247.2" height="247.2" width="395.52"><g><svg></svg></g><g><svg viewBox="0 0 395.52 247.2" height="247.2" width="395.52"><g transform="matrix(1,0,0,1,89.16197599402491,47.215199999999996)"><svg viewBox="0 0 217.19604801195015 152.7696" height="152.7696" width="217.19604801195015"><g><svg viewBox="0 0 244.43135999999998 171.92615352099526" height="152.7696" width="217.19604801195015"><g transform="matrix(1,0,0,1,0,123.12055758645255)"><svg viewBox="0 0 244.43135999999998 48.805595934542715" height="48.805595934542715" width="244.43135999999998"><g id="SvgjsG1401"><svg viewBox="0 0 244.43135999999998 48.805595934542715" height="48.805595934542715" width="244.43135999999998" id="SvgjsSvg1400"><g><svg viewBox="0 0 244.43135999999998 48.805595934542715" height="48.805595934542715" width="244.43135999999998"><g transform="matrix(1,0,0,1,0,0)"><svg width="244.43135999999998" viewBox="1.4853900000000009 -35.5937 236.94486000000003 47.3107583803866" height="48.805595934542715" data-palette-color="url(#06918d91-613b-4972-b238-36e9ccb473b6)"><path d="M5.374 10.787v0c-0.624 0.106-1.055 0.161-1.29 0.168v0c-0.092-1.945 0.101-6.958 0.581-15.037 0.478-8.086 0.543-13.165 0.192-15.236v0c-0.067-0.394-0.388-0.874-0.963-1.439-0.568-0.56-1.118-1.014-1.651-1.364v0l-0.758-0.582 0.015-0.814c4.365-1.617 9.062-2.851 14.09-3.701v0c6.054-1.024 9.484 0.847 10.29 5.613v0c0.395 2.334 0.17 4.562-0.675 6.686-0.838 2.123-2.401 3.935-4.689 5.438v0c2.886 5.834 5.14 9.547 6.762 11.138v0c0.719 0.656 1.243 0.956 1.572 0.901v0c0.592-0.1 1.462-0.551 2.611-1.354v0l0.542-0.396 1.442 1.632c-1.027 1.323-2.278 2.481-3.753 3.475-1.468 0.992-2.903 1.606-4.303 1.843-1.4 0.237-2.652-0.17-3.756-1.221-1.109-1.043-2.23-2.669-3.361-4.878-1.139-2.215-2.394-5.082-3.767-8.602v0c-1.041 0.244-1.84 0.413-2.399 0.507v0c-0.458 7.488-0.555 12.511-0.291 15.069v0c-1.297 0.929-3.444 1.647-6.441 2.154zM12.279-9.914l1.183-0.2c1.972-0.333 3.378-1.477 4.217-3.431 0.833-1.953 1.043-4.145 0.632-6.577v0c-0.217-1.282-0.622-2.278-1.215-2.99-0.594-0.711-1.35-0.989-2.271-0.833v0c-0.394 0.067-0.852 0.201-1.372 0.405-0.526 0.211-0.786 0.332-0.78 0.365v0c0.047 3.474-0.085 7.895-0.394 13.261zM46.368-16.605v0c0.058-0.074 0.187-0.527 0.387-1.358v0c1.555-0.191 3.7 0.016 6.434 0.62v0c-0.496 2.848-0.809 5.802-0.937 8.861-0.128 3.058-0.114 5.223 0.042 6.493 0.157 1.277 0.368 1.899 0.633 1.867v0c0.199-0.024 0.891-0.429 2.077-1.212v0l0.559-0.371 1.107 1.627c-0.265 0.301-0.615 0.68-1.049 1.136-0.428 0.456-1.265 1.102-2.512 1.941-1.24 0.844-2.389 1.331-3.448 1.461v0c-2.051 0.252-3.356-0.528-3.915-2.34v0c-1.89 2.113-3.688 3.274-5.395 3.484-1.707 0.21-3.228-0.275-4.561-1.455-1.34-1.179-2.186-3.194-2.537-6.046v0c-0.545-4.433-0.065-8.045 1.44-10.836 1.505-2.784 3.551-4.335 6.138-4.653v0c1.853-0.228 3.698 0.033 5.537 0.781zM42.791 1.022v0c0.794-0.098 1.649-0.522 2.564-1.272v0c-0.342-4.7-0.132-9.414 0.63-14.142v0c-1.045-0.308-1.915-0.42-2.61-0.334v0c-1.191 0.146-2.067 1.436-2.628 3.869-0.553 2.439-0.657 5.065-0.312 7.877 0.346 2.819 1.131 4.153 2.356 4.002zM79.789-3.696l1.091 1.666c-2.63 2.659-5.014 4.077-7.154 4.254-2.146 0.177-3.473-0.783-3.981-2.882v0c-0.914 1.079-1.963 1.952-3.145 2.618-1.182 0.666-2.242 1.038-3.179 1.116v0c-1.595 0.132-3.014-0.453-4.259-1.755-1.245-1.302-1.988-3.418-2.23-6.348v0c-0.363-4.385 0.282-7.91 1.935-10.575 1.653-2.659 3.652-4.085 5.998-4.279 2.345-0.194 4.359 0.175 6.041 1.106v0c0.584-5.473 0.749-9.755 0.493-12.844v0l-0.422-2.073c2.42-1.07 4.829-1.704 7.228-1.902v0c0.312 0.543 0.499 1.18 0.559 1.911v0c0.201 2.425-0.123 7.412-0.97 14.961-0.854 7.549-1.171 12.656-0.951 15.32v0c0.066 0.797 0.282 1.181 0.647 1.151v0c0.199-0.016 0.808-0.385 1.826-1.105v0zM67.529-17.141v0c-1.163 0.096-2.075 1.325-2.735 3.688-0.654 2.362-0.889 4.666-0.703 6.911 0.186 2.246 0.461 3.671 0.825 4.277 0.371 0.605 0.872 0.881 1.504 0.829v0c1.096-0.091 2.139-0.628 3.127-1.614v0c-0.01-1.337 0.372-5.82 1.146-13.45v0c-1.179-0.505-2.233-0.718-3.164-0.641zM91.539-18.588c0.073 1.398-0.252 3.828-0.973 7.29-0.721 3.462-1.055 5.716-1 6.761 0.055 1.052 0.232 1.57 0.531 1.555v0c0.2-0.01 0.949-0.366 2.248-1.068v0l0.583-0.331 0.94 1.704c-0.286 0.282-0.668 0.636-1.147 1.06-0.479 0.425-1.383 1.013-2.712 1.764-1.336 0.757-2.586 1.166-3.751 1.226-1.165 0.061-2.099-0.251-2.803-0.936-0.703-0.678-1.086-1.626-1.149-2.844-0.063-1.212 0.241-3.397 0.911-6.556 0.67-3.159 0.981-5.205 0.933-6.137v0c-0.073-1.398-0.574-2.691-1.503-3.877v0l-0.481-0.576 0.017-0.652c1.738-0.591 4.591-0.99 8.559-1.195v0c0.459 0.477 0.724 1.414 0.797 2.812zM85.405-26.611c-0.7-0.618-1.078-1.476-1.136-2.574-0.057-1.099 0.352-2.088 1.228-2.968 0.876-0.88 1.912-1.351 3.111-1.413 1.198-0.062 2.148 0.222 2.848 0.853 0.7 0.631 1.079 1.486 1.135 2.565 0.056 1.085-0.37 2.069-1.279 2.95-0.902 0.881-1.936 1.352-3.101 1.413-1.172 0.061-2.107-0.214-2.806-0.826zM102.434 0.82v0c-2.306 0.046-4.125-0.728-5.457-2.322-1.332-1.587-2.027-3.834-2.084-6.74v0c-0.073-3.699 0.856-6.902 2.79-9.607 1.927-2.705 4.643-4.093 8.149-4.163v0l1.801 0.064c0.561-0.311 1.191-0.474 1.891-0.487v0c2.633-0.052 3.999 2.404 4.097 7.37v0c1.365-0.094 2.748-0.305 4.148-0.633v0l0.796-0.215 0.339 1.943c-1.091 0.488-2.569 0.935-4.434 1.339v0l-0.996 0.219c-0.564 3.519-1.786 6.587-3.668 9.205-1.882 2.625-4.339 3.967-7.372 4.027zM105.049-3.533v0c1.4-0.028 2.638-0.953 3.715-2.774 1.084-1.829 1.823-3.747 2.216-5.755v0c-3.566 0.071-5.375-1.227-5.428-3.893v0c-0.021-1.066 0.176-2.071 0.59-3.012v0l0.24-0.505c-0.135-0.064-0.302-0.094-0.502-0.09-0.2 0.004-0.349 0.04-0.448 0.109v0c-0.823 0.55-1.581 1.815-2.275 3.796-0.694 1.981-1.016 4.238-0.965 6.77v0c0.072 3.606 1.024 5.391 2.857 5.354zM138.938 0.996c-1.3-0.025-2.361-0.471-3.185-1.34-0.817-0.862-1.212-2.02-1.185-3.473 0.027-1.446 0.842-5.542 2.443-12.286v0c-0.869-0.216-2.271-0.343-4.203-0.38-1.933-0.037-3.786 0.095-5.559 0.395v0c-1.845 7.64-2.842 12.758-2.991 15.356v0c-1.212 0.644-3.755 0.929-7.627 0.856v0l-0.5-0.01c0.128-1.465 1.104-5.833 2.928-13.107 1.818-7.274 2.965-12.739 3.441-16.397v0c0.01-0.533-0.148-1.18-0.473-1.94-0.319-0.753-0.641-1.366-0.965-1.838v0l-0.537-0.711 0.164-0.747c1.984-0.529 5.109-0.753 9.375-0.672v0c0.387 0.674 0.567 1.761 0.538 3.26-0.028 1.5-0.857 5.621-2.485 12.366v0l9.659 0.183c1.279-5.917 1.959-10.141 2.04-12.674v0c0.011-0.567-0.014-1.034-0.073-1.402v0c2.686-0.983 5.378-1.448 8.077-1.397v0c0.096 0.202 0.137 0.703 0.122 1.503v0c-0.035 1.833-0.931 6.537-2.688 14.111-1.764 7.568-2.665 12.388-2.704 14.462v0c-0.017 0.9 0.124 1.353 0.424 1.358 0.3 0.006 1.325-0.408 3.074-1.242v0l0.865 1.867c-3.017 2.643-5.676 3.943-7.975 3.899zM149.337-7.932v0c0.268-4.158 1.737-7.364 4.407-9.617 2.67-2.246 5.601-3.267 8.795-3.061v0c1.963 0.126 3.545 0.713 4.747 1.758 1.202 1.046 1.751 2.374 1.647 3.984-0.104 1.617-0.597 2.948-1.48 3.994-0.889 1.045-1.935 1.829-3.137 2.353v0c-2.437 1.012-4.646 1.605-6.628 1.778v0l-1.207 0.072c0.031 3.148 1.211 4.798 3.539 4.948v0c0.798 0.051 1.659-0.094 2.583-0.435 0.924-0.341 1.648-0.696 2.173-1.063v0l0.787-0.55 1.095 1.674c-0.29 0.349-0.853 0.797-1.69 1.344-0.837 0.547-1.617 0.998-2.342 1.352v0c-1.998 0.94-4.144 1.336-6.439 1.189-2.302-0.148-4.066-1.08-5.292-2.796-1.226-1.716-1.745-4.024-1.558-6.924zM156.588-9.119c1.716-0.19 3.109-0.819 4.18-1.885 1.071-1.067 1.664-2.498 1.779-4.295 0.116-1.796-0.359-2.729-1.423-2.797v0c-1.264-0.081-2.308 0.927-3.131 3.025-0.817 2.105-1.285 4.089-1.405 5.952zM185.396-17.083v0c0.073-0.06 0.299-0.473 0.676-1.239v0c1.559 0.156 3.605 0.83 6.139 2.022v0c-1.111 2.669-2.066 5.481-2.864 8.436-0.798 2.955-1.261 5.07-1.388 6.344-0.128 1.28-0.06 1.934 0.205 1.96v0c0.199 0.02 0.964-0.222 2.294-0.725v0l0.627-0.239 0.721 1.831c-0.325 0.235-0.75 0.528-1.274 0.877-0.517 0.35-1.477 0.797-2.877 1.34-1.395 0.55-2.623 0.773-3.685 0.667v0c-2.056-0.206-3.157-1.254-3.303-3.145v0c-2.309 1.645-4.319 2.382-6.03 2.211-1.711-0.171-3.088-0.979-4.13-2.424-1.048-1.445-1.429-3.597-1.142-6.455v0c0.445-4.444 1.708-7.862 3.79-10.254 2.081-2.385 4.419-3.447 7.012-3.188v0c1.857 0.186 3.6 0.846 5.229 1.981zM178.025-0.675v0c0.796 0.08 1.723-0.146 2.781-0.677v0c0.701-4.66 1.944-9.212 3.729-13.656v0c-0.952-0.531-1.776-0.831-2.473-0.901v0c-1.194-0.119-2.332 0.946-3.415 3.196-1.077 2.257-1.756 4.796-2.039 7.615-0.283 2.826 0.189 4.3 1.417 4.423zM215.155 2.868l0.697 1.865c-3.151 2.015-5.789 2.873-7.915 2.575-2.132-0.299-3.215-1.529-3.249-3.688v0c-1.129 0.851-2.344 1.472-3.644 1.861-1.3 0.39-2.416 0.519-3.346 0.389v0c-1.584-0.222-2.841-1.106-3.769-2.65-0.928-1.544-1.187-3.772-0.778-6.683v0c0.612-4.357 2.017-7.654 4.216-9.89 2.198-2.229 4.462-3.181 6.793-2.853 2.33 0.327 4.214 1.13 5.65 2.409v0c1.775-5.21 2.878-9.351 3.308-12.421v0l0.045-2.114c2.596-0.511 5.086-0.599 7.469-0.264v0c0.185 0.598 0.227 1.26 0.125 1.986v0c-0.338 2.41-1.752 7.203-4.24 14.381-2.495 7.176-3.929 12.088-4.301 14.735v0c-0.111 0.792 0.015 1.214 0.378 1.265v0c0.198 0.028 0.873-0.197 2.024-0.676v0zM206.156-12.947v0c-1.155-0.162-2.315 0.836-3.48 2.995-1.158 2.16-1.894 4.356-2.208 6.588-0.313 2.231-0.359 3.683-0.136 4.353 0.229 0.672 0.657 1.052 1.284 1.139v0c1.089 0.153 2.225-0.142 3.406-0.885v0c0.284-1.306 1.644-5.596 4.079-12.868v0c-1.039-0.752-2.021-1.192-2.945-1.322zM225.904-12.856v0l9.338 2.087c1.05 0.189 2.059 0.32 3.029 0.392v0l0.159 1.654-1.129 0.915c-2.155 1.814-4.583 4.012-7.283 6.595-2.7 2.583-4.172 3.988-4.416 4.214v0c2.823 1.626 5.006 2.577 6.548 2.855v0c0.492 0.089 0.854 0.052 1.086-0.11v0c0.348-0.242 0.841-0.814 1.477-1.715v0l1.415 0.61c-0.897 3.666-2.076 5.892-3.539 6.679v0c-0.712 0.38-1.527 0.487-2.445 0.322-0.919-0.165-2.286-0.997-4.103-2.496-1.818-1.492-3.321-2.514-4.509-3.067v0c-1.714 1.622-2.834 2.386-3.358 2.292-0.525-0.094-1.103-0.649-1.733-1.663-0.632-1.008-0.903-1.758-0.815-2.25 0.089-0.492 0.759-1.245 2.012-2.259 1.246-1.015 2.427-1.423 3.542-1.223v0c0.23 0.041 0.407 0.09 0.533 0.147v0c3.13-2.112 6.057-4.617 8.779-7.514v0c-2.827-0.475-4.815-0.741-5.963-0.799-1.143-0.05-2.292 0.126-3.448 0.528v0c-0.056-1.195 0.027-2.41 0.249-3.643 0.221-1.227 0.428-2.094 0.621-2.602v0c0.503-0.35 1.821-0.333 3.953 0.051z" opacity="1" transform="matrix(1,0,0,1,0,0)" fill="black" class="wordmark-text-0" id="SvgjsPath1399"></path></svg></g></svg></g></svg></g></svg></g><g transform="matrix(1,0,0,1,66.68504138079047,0)"><svg viewBox="0 0 111.06127723841905 108.97508682648433" height="108.97508682648433" width="111.06127723841905"><g><svg xmlns="http://www.w3.org/2000/svg" xmlns:xlink="http://www.w3.org/1999/xlink" version="1.1" x="0" y="0" viewBox="0 0.00024972056642233453 100 98.12158615152946" enable-background="new 0 0 100 100" xml:space="preserve" height="108.97508682648433" width="111.06127723841905" class="icon-icon-0" data-fill-palette-color="accent" id="SvgjsSvg1398"><g fill="black"><path d="M65.527 39.148c-8.535 0-15.683 5.875-17.668 13.797H10.157v1.929h37.329c-0.088 0.639-0.144 1.288-0.164 1.947H10.157v1.929h37.205c0.049 0.659 0.129 1.308 0.247 1.946H10.157v1.929h37.911c0.199 0.666 0.432 1.315 0.703 1.947H10.157v1.929h39.597c0.394 0.679 0.83 1.327 1.305 1.946H10.157v1.929h42.589c0.725 0.714 1.512 1.361 2.348 1.947H10.157v1.929h48.464c2.131 0.874 4.461 1.362 6.906 1.362s4.777-0.488 6.908-1.362h16.123v-1.929H75.961c0.836-0.586 1.625-1.233 2.35-1.947h10.248v-1.929h-8.562c0.477-0.619 0.912-1.268 1.305-1.946h7.258v-1.929h-6.273c0.27-0.632 0.502-1.281 0.703-1.947h5.57v-1.929h-5.113c0.119-0.639 0.197-1.287 0.248-1.946h4.865v-1.929h-4.826c-0.02-0.659-0.074-1.309-0.162-1.947h4.988v-1.929h-5.363C81.211 45.023 74.066 39.148 65.527 39.148zM65.527 46.016c6.277 0 11.365 5.089 11.365 11.366 0 6.277-5.088 11.365-11.365 11.365-6.275 0-11.367-5.088-11.367-11.365C54.16 51.105 59.252 46.016 65.527 46.016z" fill="black"></path><circle cx="65.527" cy="57.382" r="2.8" fill="black"></circle><rect x="10.157" y="76.198" width="78.402" height="1.929" fill="black"></rect><path d="M95.529 34.213l-0.035-0.104-0.043-0.101c-0.814-1.984-2.541-3.472-4.623-3.983l-0.227-0.057-0.236-0.029c-3.246-0.399-6.508-0.749-9.777-1.053-0.135-0.318-0.33-0.619-0.59-0.879L51.029 0.503c-0.67-0.671-1.757-0.67-2.427 0.001-0.669 0.668-0.67 1.755 0 2.425l24.04 25.325c-7.545-0.517-15.113-0.789-22.639-0.789H50c-13.446 0-27.026 0.833-40.367 2.474l-0.234 0.029L9.17 30.025c-2.082 0.511-3.809 1.999-4.623 3.983l-0.042 0.101-0.036 0.104c-2.728 7.854-4.218 16.084-4.428 24.459C0.013 59.396 0 60.057 0 60.695v0.049L0 60.767 0 60.802c0 9.034 1.504 17.944 4.47 26.483l0.036 0.103 0.042 0.103c0.813 1.982 2.541 3.471 4.623 3.982l0.229 0.057 0.234 0.027c2.65 0.328 5.312 0.612 7.979 0.874-0.098 0.325-0.17 0.662-0.191 1.015-0.143 2.437 1.714 4.524 4.149 4.668 2.434 0.144 4.525-1.715 4.668-4.148 0.016-0.272-0.001-0.538-0.034-0.8 7.927 0.571 15.883 0.868 23.792 0.868 8.123 0 16.293-0.311 24.434-0.912-0.037 0.274-0.053 0.557-0.037 0.844 0.145 2.434 2.236 4.292 4.668 4.148 2.436-0.144 4.293-2.231 4.15-4.668-0.021-0.376-0.105-0.73-0.215-1.075 2.461-0.247 4.92-0.511 7.367-0.813l0.236-0.027 0.227-0.057c2.082-0.512 3.809-2 4.623-3.982l0.043-0.103 0.035-0.103C98.496 78.746 100 69.836 100 60.802v-0.049-0.023-0.034C100 51.662 98.496 42.752 95.529 34.213zM96.014 60.802c0 8.823-1.508 17.287-4.248 25.176-0.33 0.806-1.027 1.414-1.887 1.625-13.068 1.608-26.375 2.444-39.878 2.444H50c0 0 0 0-0.001 0h-0.001c-13.503 0-26.81-0.836-39.878-2.444-0.859-0.211-1.555-0.819-1.886-1.625-2.74-7.889-4.249-16.353-4.249-25.176 0-0.017 0.001-0.034 0.001-0.051 0-0.02-0.001-0.037-0.001-0.056 0-0.644 0.016-1.272 0.041-1.895 0.2-8.138 1.665-15.959 4.208-23.281 0.331-0.805 1.027-1.415 1.886-1.625 13.069-1.608 26.375-2.443 39.878-2.443 0.001 0 0.001 0 0.001 0 0.001 0 0.001 0 0.001 0 0.001 0 0.002 0 0.004 0 9.217 0 18.34 0.399 27.359 1.156 0.299 0.077 0.604 0.103 0.91 0.077 3.887 0.339 7.758 0.736 11.605 1.21 0.859 0.211 1.557 0.82 1.887 1.625 2.74 7.889 4.248 16.354 4.248 25.176 0 0.016 0 0.033 0 0.051C96.014 60.765 96.014 60.783 96.014 60.802z" fill="black"></path></g></svg></g></svg></g><g></g></svg></g></svg></g><g><path d="M124.166 43.741A108.598 108.598 0 0 1 271.354 43.741L270.027 43.741A107.271 107.271 0 0 0 125.493 43.741L124.166 43.741M124.166 203.459A108.598 108.598 0 0 0 271.354 203.459L270.027 203.459A107.271 107.271 0 0 1 125.493 203.459L124.166 203.459" fill="black" stroke="transparent"></path></g></svg></g><defs><mask></mask></defs></svg><rect width="395.52" height="247.2" fill="black" stroke="none" visibility="hidden"></rect></g></mask></svg><rect width="395.52" height="247.2" fill="black" stroke="none" visibility="hidden"></rect></g></mask></svg><rect width="395.52" height="247.2" fill="black" stroke="none" visibility="hidden"></rect></g></mask><linearGradient x1="0" x2="1" y1="0.5" y2="0.5" id="34390ad4-650a-46ca-99dc-9b1c6dd00297"><stop stop-color="#ffa62e" offset="0"></stop><stop stop-color="#f71b3d" offset="1"></stop></linearGradient></svg><rect width="395.52" height="247.2" fill="none" stroke="none" visibility="hidden"></rect></g></svg></g></svg>