<svg xmlns="http://www.w3.org/2000/svg" version="1.1" xmlns:xlink="http://www.w3.org/1999/xlink" xmlns:svgjs="http://svgjs.dev/svgjs" width="128" height="128" viewBox="0 0 128 128"><g transform="matrix(0.8046875,0,0,0.8046875,12.333870967741937,12.333870967741937)"><svg viewBox="0 0 155 155" data-background-color="#000000" preserveAspectRatio="xMidYMid meet" height="128" width="128" xmlns="http://www.w3.org/2000/svg" xmlns:xlink="http://www.w3.org/1999/xlink"><g id="tight-bounds" transform="matrix(1,0,0,1,0.25,0.25)"><svg viewBox="0 0 154.5 154.5" height="154.5" width="154.5"><g><svg></svg></g><g><svg viewBox="0 0 154.5 154.5" height="154.5" width="154.5"><g transform="matrix(1,0,0,1,59.016757278,59.3592530343153)"><svg viewBox="0 0 36.46648544399999 35.7814939313694" height="35.7814939313694" width="36.46648544399999"><g><svg viewBox="0 0 36.46648544399999 35.7814939313694" height="35.7814939313694" width="36.46648544399999"><g><svg viewBox="0 0 36.46648544399999 35.7814939313694" height="35.7814939313694" width="36.46648544399999"><g id="textblocktransform"><svg viewBox="0 0 36.46648544399999 35.7814939313694" height="35.7814939313694" width="36.46648544399999" id="textblock"><g><svg viewBox="0 0 36.46648544399999 35.7814939313694" height="35.7814939313694" width="36.46648544399999"><g><svg viewBox="0 0 36.46648544399999 35.7814939313694" height="35.7814939313694" width="36.46648544399999"><g><svg xmlns="http://www.w3.org/2000/svg" xmlns:xlink="http://www.w3.org/1999/xlink" version="1.1" x="0" y="0" viewBox="0 0.00024972056642233453 100 98.12158615152946" enable-background="new 0 0 100 100" xml:space="preserve" height="35.7814939313694" width="36.46648544399999" class="icon-icon-0" data-fill-palette-color="accent" id="icon-0"></svg></g></svg></g></svg></g></svg></g></svg></g><g></g></svg></g></svg></g><g></g></svg></g><defs></defs><mask id="4b028065-592b-4d12-835a-c73583e4b740"><g id="SvgjsG1059"><svg viewBox="0 0 154.5 154.5" height="154.5" width="154.5"><g><svg></svg></g><g><svg viewBox="0 0 154.5 154.5" height="154.5" width="154.5"><g transform="matrix(1,0,0,1,59.016757278,59.3592530343153)"><svg viewBox="0 0 36.46648544399999 35.7814939313694" height="35.7814939313694" width="36.46648544399999"><g><svg viewBox="0 0 36.46648544399999 35.7814939313694" height="35.7814939313694" width="36.46648544399999"><g><svg viewBox="0 0 36.46648544399999 35.7814939313694" height="35.7814939313694" width="36.46648544399999"><g id="SvgjsG1058"><svg viewBox="0 0 36.46648544399999 35.7814939313694" height="35.7814939313694" width="36.46648544399999" id="SvgjsSvg1057"><g><svg viewBox="0 0 36.46648544399999 35.7814939313694" height="35.7814939313694" width="36.46648544399999"><g><svg viewBox="0 0 36.46648544399999 35.7814939313694" height="35.7814939313694" width="36.46648544399999"><g><svg xmlns="http://www.w3.org/2000/svg" xmlns:xlink="http://www.w3.org/1999/xlink" version="1.1" x="0" y="0" viewBox="0 0.00024972056642233453 100 98.12158615152946" enable-background="new 0 0 100 100" xml:space="preserve" height="35.7814939313694" width="36.46648544399999" class="icon-icon-0" data-fill-palette-color="accent" id="SvgjsSvg1056"><g fill="white"><path d="M65.527 39.148c-8.535 0-15.683 5.875-17.668 13.797H10.157v1.929h37.329c-0.088 0.639-0.144 1.288-0.164 1.947H10.157v1.929h37.205c0.049 0.659 0.129 1.308 0.247 1.946H10.157v1.929h37.911c0.199 0.666 0.432 1.315 0.703 1.947H10.157v1.929h39.597c0.394 0.679 0.83 1.327 1.305 1.946H10.157v1.929h42.589c0.725 0.714 1.512 1.361 2.348 1.947H10.157v1.929h48.464c2.131 0.874 4.461 1.362 6.906 1.362s4.777-0.488 6.908-1.362h16.123v-1.929H75.961c0.836-0.586 1.625-1.233 2.35-1.947h10.248v-1.929h-8.562c0.477-0.619 0.912-1.268 1.305-1.946h7.258v-1.929h-6.273c0.27-0.632 0.502-1.281 0.703-1.947h5.57v-1.929h-5.113c0.119-0.639 0.197-1.287 0.248-1.946h4.865v-1.929h-4.826c-0.02-0.659-0.074-1.309-0.162-1.947h4.988v-1.929h-5.363C81.211 45.023 74.066 39.148 65.527 39.148zM65.527 46.016c6.277 0 11.365 5.089 11.365 11.366 0 6.277-5.088 11.365-11.365 11.365-6.275 0-11.367-5.088-11.367-11.365C54.16 51.105 59.252 46.016 65.527 46.016z" fill="white"></path><circle cx="65.527" cy="57.382" r="2.8" fill="white"></circle><rect x="10.157" y="76.198" width="78.402" height="1.929" fill="white"></rect><path d="M95.529 34.213l-0.035-0.104-0.043-0.101c-0.814-1.984-2.541-3.472-4.623-3.983l-0.227-0.057-0.236-0.029c-3.246-0.399-6.508-0.749-9.777-1.053-0.135-0.318-0.33-0.619-0.59-0.879L51.029 0.503c-0.67-0.671-1.757-0.67-2.427 0.001-0.669 0.668-0.67 1.755 0 2.425l24.04 25.325c-7.545-0.517-15.113-0.789-22.639-0.789H50c-13.446 0-27.026 0.833-40.367 2.474l-0.234 0.029L9.17 30.025c-2.082 0.511-3.809 1.999-4.623 3.983l-0.042 0.101-0.036 0.104c-2.728 7.854-4.218 16.084-4.428 24.459C0.013 59.396 0 60.057 0 60.695v0.049L0 60.767 0 60.802c0 9.034 1.504 17.944 4.47 26.483l0.036 0.103 0.042 0.103c0.813 1.982 2.541 3.471 4.623 3.982l0.229 0.057 0.234 0.027c2.65 0.328 5.312 0.612 7.979 0.874-0.098 0.325-0.17 0.662-0.191 1.015-0.143 2.437 1.714 4.524 4.149 4.668 2.434 0.144 4.525-1.715 4.668-4.148 0.016-0.272-0.001-0.538-0.034-0.8 7.927 0.571 15.883 0.868 23.792 0.868 8.123 0 16.293-0.311 24.434-0.912-0.037 0.274-0.053 0.557-0.037 0.844 0.145 2.434 2.236 4.292 4.668 4.148 2.436-0.144 4.293-2.231 4.15-4.668-0.021-0.376-0.105-0.73-0.215-1.075 2.461-0.247 4.92-0.511 7.367-0.813l0.236-0.027 0.227-0.057c2.082-0.512 3.809-2 4.623-3.982l0.043-0.103 0.035-0.103C98.496 78.746 100 69.836 100 60.802v-0.049-0.023-0.034C100 51.662 98.496 42.752 95.529 34.213zM96.014 60.802c0 8.823-1.508 17.287-4.248 25.176-0.33 0.806-1.027 1.414-1.887 1.625-13.068 1.608-26.375 2.444-39.878 2.444H50c0 0 0 0-0.001 0h-0.001c-13.503 0-26.81-0.836-39.878-2.444-0.859-0.211-1.555-0.819-1.886-1.625-2.74-7.889-4.249-16.353-4.249-25.176 0-0.017 0.001-0.034 0.001-0.051 0-0.02-0.001-0.037-0.001-0.056 0-0.644 0.016-1.272 0.041-1.895 0.2-8.138 1.665-15.959 4.208-23.281 0.331-0.805 1.027-1.415 1.886-1.625 13.069-1.608 26.375-2.443 39.878-2.443 0.001 0 0.001 0 0.001 0 0.001 0 0.001 0 0.001 0 0.001 0 0.002 0 0.004 0 9.217 0 18.34 0.399 27.359 1.156 0.299 0.077 0.604 0.103 0.91 0.077 3.887 0.339 7.758 0.736 11.605 1.21 0.859 0.211 1.557 0.82 1.887 1.625 2.74 7.889 4.248 16.354 4.248 25.176 0 0.016 0 0.033 0 0.051C96.014 60.765 96.014 60.783 96.014 60.802z" fill="white"></path></g></svg></g></svg></g></svg></g></svg></g></svg></g><g></g></svg></g></svg></g><g></g></svg></g><defs><mask></mask></defs></svg><rect width="154.5" height="154.5" fill="black" stroke="none" visibility="hidden"></rect></g></mask><linearGradient x1="0" x2="1" y1="0.5" y2="0.5" id="bb5bade4-684e-4fcb-9ae1-eac83ae693df"><stop stop-color="#ffa62e" offset="0"></stop><stop stop-color="#f71b3d" offset="1"></stop></linearGradient><rect width="154.5" height="154.5" fill="#ffffff" mask="url(#4b028065-592b-4d12-835a-c73583e4b740)" data-fill-palette-color="accent"></rect></svg><rect width="154.5" height="154.5" fill="none" stroke="none" visibility="hidden"></rect></g></svg></g></svg>